<svg xmlns="http://www.w3.org/2000/svg" width="136pt" height="136pt" viewBox="0 0 136 136"><g fill="#fff"><path d="M16.01 16c30.64 0 61.27-.01 91.91.01-5.32 5.33-10.65 10.66-15.98 15.98-19.98.02-39.96 0-59.94.01-.05 19.98-.12 39.95-.17 59.92-5.25 5.36-10.54 10.67-15.82 16-.02-30.64-.01-61.28 0-91.92Z" opacity="0.375"/><path d="M52.01 52c9.33 0 18.66-.01 27.99.01V80H52c0-9.33 0-18.67.01-28Z" opacity="0.375"/></g><path fill="#fff" d="M100 44.01c6.66-6.74 13.32-13.46 19.99-20.19.02 32.06 0 64.12.01 96.18-32.06-.01-64.12.02-96.18-.01C30.54 113.32 37.28 106.67 44 100h56V44.01Z" opacity="1.00"/></svg>