<svg xmlns="http://www.w3.org/2000/svg" width="60" height="60" viewBox="0 0 60 60"><defs><linearGradient id="a" x1="80.957%" x2="19.367%" y1="19.327%" y2="81.427%"><stop offset="0%" stop-opacity="0"/><stop offset="51.568%"/><stop offset="100%" stop-opacity="0"/></linearGradient></defs><g fill="none" fill-rule="evenodd"><path fill="#2F5FF7" d="M60 0v2.18L46.31 15.87l-3.222 3.223L32.182 30 30 32.18 19.094 43.089l-3.223 3.223L2.182 60H0v-2.182l16.912-16.912L27.82 30 30 27.818l10.907-10.906 3.223-3.223L57.818 0H60zm0 5.817v4.362L47.087 23.092 36.18 33.999l-2.182 2.18-10.906 10.908-3.223 3.222L10.18 60H5.817l11.872-11.871 3.223-3.223 10.906-10.907L34 31.818 44.906 20.91l3.222-3.223L60 5.817zm0 7.998v4.363l-5.69 5.691-3.223 3.223L40.18 37.998l-2.181 2.182-14.13 14.128L18.178 60h-4.363l7.873-7.873 3.223-3.222 10.906-10.907L38 35.817 48.905 24.91l3.223-3.223L60 13.815zM54.183 0 39.089 15.094 28.183 26.001l-2.182 2.181-10.906 10.907L0 54.183v-4.362l9.692-9.691 3.221-3.223L23.82 26 26 23.819l10.908-10.906 3.223-3.223L49.82 0h4.362zm-7.998 0-7.872 7.872-3.223 3.223-10.906 10.907-2.182 2.181L11.096 35.09l-3.222 3.222L0 46.185v-4.362l5.693-5.692 3.221-3.223 10.907-10.906 2.181-2.182L32.91 8.914 41.822 0h4.363z"/><path fill="url(#a)" d="m32.855 8.887-10.902 10.92-2.18 2.185-10.902 10.92-3.22 3.226 2.18 2.184 3.22-3.226 10.902-10.92 2.181-2.184L35.035 11.07l3.222-3.227-2.18-2.184-3.222 3.227zm3.998 4.004L25.95 23.811l-2.18 2.185-10.902 10.92-3.22 3.227 1.4 1.402.78.782 3.221-3.226L25.95 28.18l2.181-2.184 10.902-10.921 3.22-3.227-2.18-2.184-3.22 3.227zm3.997 4.004-10.902 10.92L27.768 30 16.865 40.92l-3.22 3.227 2.18 2.184 3.221-3.226 10.902-10.921L32.128 30 43.03 19.08l3.221-3.228-2.18-2.183-3.221 3.226zm3.997 4.004L33.946 31.82l-2.181 2.184-10.901 10.921-3.222 3.227 2.18 2.184 3.222-3.227 10.9-10.921 2.182-2.184 10.901-10.92 3.221-3.227-1.399-1.402-.78-.782-3.222 3.226zm3.997 4.005-10.9 10.92-2.182 2.184L24.861 48.93l-3.221 3.227 2.18 2.184 3.22-3.227 10.903-10.92 2.18-2.185 10.902-10.92 3.222-3.226-.327-.328-1.854-1.857-3.222 3.227z"/><path fill="#5A8DFF" d="M0 0v23.994l12.913 12.913 2.182 2.182 1.817 1.817L36.006 60H60V36.005L48.905 24.91l-1.818-1.818-2.181-2.181L23.995 0z"/></g></svg>