<svg xmlns="http://www.w3.org/2000/svg" xml:space="preserve" width="100" height="100" viewBox="0 0 26.458333 26.458333"><image width="26.458334" height="26.458334" preserveAspectRatio="none" style="display:inline"/><g style="display:inline"><circle cx="13.229167" cy="13.229092" r="13.229167" style="display:inline;fill:#221814;fill-opacity:1;stroke-width:.975193;stroke-opacity:.493562"/><path d="M13.23 1.65c-6.392 0-11.575 5.183-11.575 11.576 0 6.393 5.183 11.575 11.576 11.575 6.393 0 11.575-5.182 11.575-11.575 0-6.393-5.182-11.576-11.575-11.576zm.002.878c5.918 0 10.684 4.783 10.684 10.701s-4.769 10.664-10.687 10.664c-5.918 0-10.686-4.746-10.686-10.664 0-5.918 4.771-10.701 10.69-10.701z" style="display:inline;fill:#efeeec;fill-opacity:1;stroke-width:1.05709;stroke-opacity:.493562"/><path d="m5.87 10.588 1.351 5.39 3.457.003-.097-.834H8.276l-.251-1.2 2.177.014-.11-.984-2.256.002-.238-1.214 2.505-.002-.14-1.159zM18.934 10.542c-1.123-.033-2.31.305-3.195 1.092-1.14-1.568-4.271-.996-5.133-.958l.494 5.293c1.785.154 3.362.074 4.218-.733.465.662 1.96 1.095 4.225.542l.668-2.598h-2.26l-.16.927.906.006-.245 1.064c-1.845.208-2.344-.702-2.21-1.613.186-1.547 1.837-2.287 3.765-1.579l.584-1.144c-.41-.136-.566-.267-1.657-.3Zm-4.19 2.881c-.11 1.881-1.583 1.821-2.455 1.801l-.145-3.534c1.854-.245 2.657.589 2.6 1.733z" style="display:inline;fill:#efeeec;fill-opacity:1;stroke-width:.962001;stroke-opacity:.493562"/><g style="font-size:1.94701px;font-family:&quot;Copperplate Gothic Bold&quot;;letter-spacing:-.0160003px;display:inline;fill:#efeeec;fill-opacity:1;stroke-width:.919179;stroke-opacity:.493562"><path d="m10.649 8.777-.262-.002a.071.071 0 0 0-.047.014.103.103 0 0 0-.034.047h-.016l-.002-.244h.017a.102.102 0 0 0 .034.047c.01.009.026.015.046.013l.49-.005v.022a.089.089 0 0 0-.047.031c-.009.012-.003-.01-.003.013v.224c0 .02.005.035.014.046.01.01.013.006.035.012l.003.02a1.217 1.217 0 0 1-.6.175.643.643 0 0 1-.412-.124.514.514 0 0 1-.149-.16.537.537 0 0 1-.063-.257c0-.125.032-.232.11-.33.12-.15.286-.22.522-.22.104 0 .224.014.357.06a.541.541 0 0 0 .092.026c.01 0 .03-.001.045-.011l.016.008-.127.268-.016-.01v-.005c0-.023-.016-.058-.063-.083a.655.655 0 0 0-.295-.08.46.46 0 0 0-.292.112c-.078.066-.105.156-.105.268a.32.32 0 0 0 .106.25.472.472 0 0 0 .313.11.736.736 0 0 0 .334-.074z" style="fill:#efeeec;fill-opacity:1;stroke-width:.919177" transform="scale(.98781 1.01234)"/><path d="m13.049 9.163-.399-.722-.002.642c0 .02.003.021.011.032.01.01.021.02.044.028v.025h-.325v-.026c.023-.006.03-.003.039-.014a.067.067 0 0 0 .014-.045v-.871c0-.02-.004-.035-.013-.045-.01-.01-.01-.021-.033-.028v-.026l.428.004v.026c-.03.01-.044.028-.044.055 0 .026.019.051.04.089l.253.48.265-.472c.03-.05.056-.09.056-.11a.053.053 0 0 0-.044-.055v-.015h.423v.016a.1.1 0 0 0-.047.036c-.009.01-.013.025-.013.045l-.003.861c0 .02.002.033.01.044.01.01.022.02.045.026v.025h-.33v-.026c.023-.006.029-.003.038-.014a.065.065 0 0 0 .014-.045l-.008-.642z" style="letter-spacing:-.0449792px;fill:#efeeec;fill-opacity:1" transform="scale(.98781 1.01234)"/><path d="m14.221 8.208.002.865c0 .02.004.035.013.046.009.01.025.019.048.026v.025l-.335-.001v-.027a.087.087 0 0 0 .046-.025.067.067 0 0 0 .014-.045l.002-.861c0-.02-.004-.035-.013-.045a.098.098 0 0 0-.046-.03l-.002-.018.332-.003-.001.018a.09.09 0 0 0-.046.03c-.01.01-.014.025-.014.045zM14.734 8.447l-.002.625c0 .02.004.035.013.046a.1.1 0 0 0 .047.029v.025h-.307v-.026c.022-.006.033-.021.042-.032a.067.067 0 0 0 .014-.046l.005-.846c0-.02-.005-.035-.014-.045-.009-.01-.024-.036-.047-.043v-.018l.36-.004v.018c-.029.007-.037.027-.037.045 0 .015.028.048.048.068l.58.586v-.611c0-.02-.005-.035-.013-.045a.093.093 0 0 0-.048-.026v-.026h.324v.026a.093.093 0 0 0-.047.026c-.01.01-.014.025-.013.045l.004.858c0 .02.004.035.013.046.009.01.016.019.04.026v.025h-.335v-.025c.028-.006.032-.025.032-.043a.045.045 0 0 0-.011-.027.991.991 0 0 0-.052-.056z" style="letter-spacing:-.0423333px;fill:#efeeec;fill-opacity:1" transform="scale(.98781 1.01234)"/><path d="m16.857 8.775-.258.002c-.02 0-.035.005-.046.014a.097.097 0 0 0-.025.047h-.026l-.001-.25h.026a.096.096 0 0 0 .024.047c.011.009.027.015.047.013l.489-.006v.028c-.022.006-.037.014-.046.026-.01.012-.003-.01-.003.012v.225c0 .02.004.035.013.045.01.011.017.004.039.01v.022a1.217 1.217 0 0 1-.6.176.643.643 0 0 1-.413-.124.514.514 0 0 1-.148-.161.537.537 0 0 1-.064-.256c0-.125.033-.232.11-.33.12-.15.287-.22.523-.22.103 0 .216.02.348.066a.541.541 0 0 0 .092.027c.011 0 .036-.006.05-.016l.024.012-.123.262-.022-.011v-.006c0-.023-.017-.06-.064-.085a.659.659 0 0 0-.296-.075.46.46 0 0 0-.293.111.331.331 0 0 0-.111.268c0 .104.042.188.112.25a.472.472 0 0 0 .314.11.709.709 0 0 0 .327-.074z" style="fill:#efeeec;fill-opacity:1;stroke-width:.919177" transform="scale(.98781 1.01234)"/></g><g style="font-size:1.93337px;font-family:&quot;Copperplate Gothic Bold&quot;;display:inline;fill:#efeeec;fill-opacity:1;stroke-width:.91274;stroke-opacity:.493562"><path d="m9.552 7.236-.005.29.68.005c.02 0 .04-.003.05-.012.011-.009.02-.025.026-.048l.02-.001v.275h-.022c-.006-.022-.012-.039-.022-.048-.011-.009-.026-.007-.046-.007l-.97.004v-.026a.086.086 0 0 0 .046-.025.066.066 0 0 0 .015-.045v-.859c0-.02-.005-.034-.014-.044a.102.102 0 0 0-.047-.026v-.026l.943.012c.02 0 .035-.004.045-.013a.091.091 0 0 0 .031-.046l.02-.001v.268l-.015.001a.103.103 0 0 0-.036-.049c-.01-.009-.044-.011-.064-.011l-.646.004.005.262.43.004c.02 0 .036-.001.047-.01.01-.01.016-.019.023-.041l.015-.001.002.264h-.02a.095.095 0 0 0-.031-.048c-.01-.01-.019-.01-.04-.01zM10.556 7.6l.002-.859c0-.02-.005-.034-.013-.044a.102.102 0 0 0-.048-.026v-.026l.606.002c.129 0 .23.016.305.048.104.045.16.1.207.204a.63.63 0 0 1 .052.256c0 .18-.022.314-.13.407a.466.466 0 0 1-.172.099.993.993 0 0 1-.252.031l-.618.004V7.67a.086.086 0 0 0 .047-.025.066.066 0 0 0 .014-.045zm.22-.076.315-.001c.124 0 .214-.028.27-.085.059-.06.082-.151.082-.26 0-.11-.034-.222-.092-.281a.251.251 0 0 0-.108-.064.522.522 0 0 0-.162-.021l-.304.005z" style="fill:#efeeec;fill-opacity:1;stroke-width:.912739" transform="scale(.98952 1.0106)"/><path d="m12.66 6.96-.244.576a.198.198 0 0 0-.016.07c0 .035.017.058.059.066v.025h-.351v-.025c.037-.01.055-.045.055-.078 0-.017-.02-.037-.032-.067l-.27-.698c-.022-.055-.037-.095-.052-.113a.116.116 0 0 0-.066-.04V6.65l.376.005v.027c-.04.012-.059.032-.059.06 0 .013.006.035.019.067l.204.523.218-.525a.2.2 0 0 0 .018-.068c0-.031-.021-.052-.063-.063V6.65l.42-.003v.026c-.041.013-.062.035-.062.066 0 .014.006.035.016.062l.21.51.214-.492c.008-.022.024-.061.024-.078s-.004-.031-.013-.04a.11.11 0 0 0-.048-.025V6.65h.373v.026a.155.155 0 0 0-.068.043.462.462 0 0 0-.053.107l-.274.701c-.01.026-.03.052-.03.071 0 .037.009.066.051.073v.026h-.34v-.025c.04-.012.05-.048.05-.083 0-.008-.018-.036-.032-.07z" style="letter-spacing:-.0265912px;fill:#efeeec;fill-opacity:1;stroke-width:.912739" transform="scale(.98952 1.0106)"/><path d="m14.452 7.416-.462.002-.073.124s-.028.06-.029.082c0 .007.004.04.044.049v.026l-.348-.002v-.026a.145.145 0 0 0 .063-.035c.012-.011.02-.032.035-.064l.384-.781c.015-.03.02-.05.02-.072 0-.025-.008-.032-.043-.047v-.026l.362-.001v.026c-.034.014-.04.03-.04.058 0 .021.013.043.029.073l.384.77a.336.336 0 0 0 .06.08c.013.012.032.02.058.026l-.001.02-.406-.002v-.02c.042-.006.062-.025.062-.057a.161.161 0 0 0-.024-.073zm-.062-.133-.175-.367-.174.367Z" style="letter-spacing:-.0425459px;fill:#efeeec;fill-opacity:1;stroke-width:.912739" transform="scale(.98952 1.0106)"/><path d="m15.27 7.262-.003.335c0 .02.009.035.018.046.008.01.019.03.042.037v.017h-.345v-.02c.022-.006.026-.013.035-.024.01-.01.014-.026.014-.045l.01-.863c0-.02-.004-.034-.013-.044a.102.102 0 0 0-.047-.026V6.65h.693c.09 0 .158.005.206.014.047.009.079.04.116.064.076.05.108.116.108.229a.277.277 0 0 1-.073.2c-.047.049-.117.077-.222.098l.195.274a.662.662 0 0 0 .087.106c.022.018.036.04.063.044l.001.019h-.382v-.02c.033-.008.036-.017.036-.037 0-.013-.01-.035-.03-.063l-.22-.316Zm-.003-.166h.393c.058 0 .1-.007.128-.02.04-.016.085-.067.085-.118 0-.044-.03-.099-.057-.117a.376.376 0 0 0-.168-.03h-.38zM16.34 7.588l.01-.853c.001-.02-.003-.034-.012-.044a.085.085 0 0 0-.043-.025v-.022l.62.002c.129 0 .216.017.29.049a.482.482 0 0 1 .211.206.63.63 0 0 1 .06.256c0 .18-.05.316-.158.409a.453.453 0 0 1-.168.1.93.93 0 0 1-.246.028l-.608-.002v-.017c.022-.006.026-.012.034-.023.01-.01.01-.045.01-.064zm.245-.063h.27c.124 0 .214-.028.27-.085a.437.437 0 0 0 .113-.283.373.373 0 0 0-.107-.26.251.251 0 0 0-.107-.064.536.536 0 0 0-.163-.021h-.27z" style="letter-spacing:-.0319095px;fill:#efeeec;fill-opacity:1;stroke-width:.912739" transform="scale(.98952 1.0106)"/><path d="m11.829 8.903-.462.002-.073.124s-.029.06-.03.082c0 .007 0 .041.04.05v.026l-.343-.004v-.027a.14.14 0 0 0 .063-.034c.012-.01.02-.031.035-.063l.384-.781c.014-.03.02-.05.02-.072 0-.026-.009-.032-.044-.047v-.026l.363-.001v.026c-.035.014-.04.03-.04.058 0 .021.013.042.028.073l.384.769a.336.336 0 0 0 .061.081c.013.012.021.02.047.026v.019h-.39l.002-.018c.04-.007.054-.029.054-.06a.161.161 0 0 0-.024-.073zm-.062-.134-.175-.366-.175.366Z" style="letter-spacing:-.0425459px;display:inline;fill:#efeeec;fill-opacity:1;stroke-width:.912739" transform="scale(.98952 1.0106)"/></g><g style="font-size:2.01557px;font-family:&quot;Copperplate Gothic Bold&quot;;display:inline;fill:#efeeec;fill-opacity:1;stroke-width:.951547;stroke-opacity:.493562"><path d="m5.853 16.95-.004.913c0 .02.005.036.014.047.01.01.026.02.05.027l-.002.015h-.337l.001-.016c.023-.006.034-.01.043-.022a.07.07 0 0 0 .015-.047l.007-.916c0-.02-.004-.036-.013-.047a.106.106 0 0 0-.05-.026v-.012h.338v.012a.095.095 0 0 0-.049.026c-.009.01-.014.026-.014.047z" style="font-size:2.01557px;font-family:&quot;Copperplate Gothic Bold&quot;;letter-spacing:.0873125px;display:inline;fill:#efeeec;fill-opacity:1;stroke-width:.951547;stroke-opacity:.493562" transform="scale(.96264 1.0388)"/><path d="m6.432 17.16-.006.71c0 .02.005.035.014.046.01.012.02.02.043.027v.013h-.31l.001-.01a.09.09 0 0 0 .049-.026.07.07 0 0 0 .014-.047l.003-.915c0-.02-.002-.047-.011-.057-.01-.011-.01-.013-.033-.02v-.012h.333v.01c-.028.005-.043.023-.037.032.012.018.021.032.042.053l.679.659v-.643c0-.02-.002-.072-.01-.082-.01-.012 0-.01-.024-.017v-.012h.268v.01c-.012.008-.027.013-.04.03-.01.011-.003.066-.003.087l-.002.875c0 .02.005.036.014.047.01.01.018.02.042.027l-.002.01-.297-.001v-.012c.018-.006.027-.012.027-.022 0-.01-.015-.03-.023-.04a1.056 1.056 0 0 0-.054-.058z" style="font-size:2.01557px;font-family:&quot;Copperplate Gothic Bold&quot;;letter-spacing:.0661458px;display:inline;fill:#efeeec;fill-opacity:1;stroke-width:.951547;stroke-opacity:.493562" transform="scale(.96264 1.0388)"/><path d="m8.31 17.038.003.83c0 .02.005.035.014.046.01.011.025.022.05.029v.016h-.34v-.016a.09.09 0 0 0 .048-.026.068.068 0 0 0 .015-.047l.002-.833h-.376c-.021 0-.054-.003-.065.007-.01.01-.014.012-.021.035h-.011l.003-.244.013.001c.006.023.01.02.02.03.012.01.045.008.066.008l.963.003c.02 0 .053-.003.063-.012.011-.01.006-.006.013-.03h.014v.235h-.018c-.006-.023-.002-.02-.013-.03-.01-.01-.035-.005-.056-.005z" style="font-size:2.01557px;font-family:&quot;Copperplate Gothic Bold&quot;;letter-spacing:.0873125px;display:inline;fill:#efeeec;fill-opacity:1;stroke-width:.951547;stroke-opacity:.493562" transform="scale(.96264 1.0388)"/><path d="M9.218 17.481v.303h.772c.02 0 .026-.003.042-.004.01 0 .04-.014.046-.038h.014l-.001.243h-.011c-.01-.01-.012-.014-.023-.023-.011-.01-.027-.007-.047-.006l-1.057.003v-.015a.09.09 0 0 0 .048-.026.069.069 0 0 0 .015-.047l-.003-.917c0-.02-.005-.036-.014-.046-.009-.01-.013-.017-.036-.024v-.016l1.023.01c.02 0 .036-.005.047-.014.011-.01.018-.01.024-.033h.016l.003.246h-.013c-.007-.025-.013-.026-.024-.035-.01-.009-.026-.014-.047-.014h-.774v.29h.494c.02 0 .046-.005.056-.014.011-.01.016-.01.024-.033l.015-.002.001.246H9.79c-.006-.024-.009-.02-.02-.029-.01-.01-.03-.004-.05-.004zM10.579 17.49v.383c0 .02-.003.036.006.047.01.01.013.018.036.025v.01h-.32v-.006c.022-.006.023-.014.033-.025.01-.01.014-.047.014-.047l-.004-.925c0-.02-.005-.036-.014-.047-.009-.01-.013-.019-.037-.026v-.014s.495.002.742 0a.66.66 0 0 1 .331.07c.081.049.132.125.132.242 0 .09-.025.16-.074.21a.45.45 0 0 1-.236.108l.229.3a.69.69 0 0 0 .09.11c.024.02.035.04.064.045v.006l-.378-.001.003-.006c.011-.007.022-.015.022-.035 0-.015-.027-.048-.048-.077l-.258-.342zm.006-.179.48.004c.06 0 .104-.006.133-.02.041-.017.066-.072.066-.125 0-.046-.015-.079-.044-.097-.028-.019-.078-.027-.151-.028l-.48-.004z" style="letter-spacing:.0291042px;fill:#efeeec;fill-opacity:1" transform="scale(.96264 1.0388)"/><path d="m11.981 17.16-.006.71c0 .02.004.035.013.046.01.012.02.02.043.027l.001.013h-.31l.001-.01a.09.09 0 0 0 .048-.026.07.07 0 0 0 .015-.047l.002-.915c0-.02-.001-.047-.01-.057-.01-.011-.01-.013-.034-.02v-.012h.333v.01c-.027.005-.042.023-.036.032.011.018.02.032.042.053l.678.659.001-.643c0-.02-.002-.072-.011-.082-.01-.012 0-.01-.024-.017l.001-.012h.268l-.001.01c-.011.008-.026.013-.04.03-.01.011-.003.066-.003.087l-.001.875c0 .02.005.036.014.047.009.01.018.02.041.027l-.002.01-.297-.001v-.012c.019-.006.028-.012.028-.022 0-.01-.015-.03-.023-.04a1.056 1.056 0 0 0-.054-.058z" style="letter-spacing:.0661458px;fill:#efeeec;fill-opacity:1" transform="scale(.96264 1.0388)"/><path d="m14.102 17.656-.547.003-.086.145c-.013.029-.039.082-.036.098.003.02.001.036.039.044l-.001.01h-.3v-.01c.026-.004.043-.023.055-.035.012-.01.031-.063.047-.095l.367-.771c.016-.031.043-.092.053-.113.008-.016 0-.04-.031-.046v-.016h.342l-.001.016c-.023.007-.027.017-.027.04 0 .022.042.084.058.116l.403.794c.023.043.038.074.051.087.013.012.006.015.032.02v.013l-.323-.003.003-.014c.032-.005.028-.03.027-.049-.002-.02-.028-.061-.045-.091zm-.093-.157-.186-.383-.187.383z" style="letter-spacing:-.09525px;fill:#efeeec;fill-opacity:1" transform="scale(.96264 1.0388)"/><path d="m15.175 17.038.003.83c0 .02.005.035.014.046.009.011.025.022.049.029v.016h-.338l-.001-.016a.09.09 0 0 0 .048-.026.068.068 0 0 0 .015-.047l.002-.833h-.377c-.02 0-.053-.003-.064.007-.01.01-.015.012-.021.035h-.012l.004-.244.013.001c.006.023.01.02.02.03.012.01.045.008.066.008l.963.003c.02 0 .052-.003.063-.012.011-.01.006-.006.012-.03h.015v.235h-.018c-.006-.023-.002-.02-.013-.03-.01-.01-.035-.005-.056-.005zM16.117 16.954l-.003.912c0 .02.005.036.014.047.01.011.026.02.05.027l-.002.016h-.337l.001-.017c.023-.006.034-.01.043-.022a.07.07 0 0 0 .015-.047l.007-.916c0-.02-.004-.036-.014-.046a.106.106 0 0 0-.049-.027v-.012h.338v.012a.095.095 0 0 0-.049.027c-.009.01-.014.025-.014.046z" style="letter-spacing:.0873125px;fill:#efeeec;fill-opacity:1" transform="scale(.96264 1.0388)"/><path d="M17.082 16.858c.175 0 .32.032.438.122.14.107.23.253.23.445 0 .18-.09.329-.23.436-.116.09-.257.102-.432.102s-.325-.012-.44-.102a.53.53 0 0 1-.224-.437c0-.188.083-.339.224-.444.116-.088.26-.12.434-.122zm0 .172c-.113 0-.248.037-.32.11a.441.441 0 0 0-.12.284c0 .103.037.196.103.264.072.074.233.114.347.114a.537.537 0 0 0 .338-.13.343.343 0 0 0 .108-.247.449.449 0 0 0-.121-.293c-.072-.072-.22-.1-.334-.102z" style="letter-spacing:.0449792px;fill:#efeeec;fill-opacity:1" transform="scale(.96264 1.0388)"/><path d="m18.215 17.151-.006.71c0 .02.004.036.014.047.01.011.02.02.042.027l.002.012h-.31v-.01a.09.09 0 0 0 .049-.025.07.07 0 0 0 .014-.047l.002-.916c0-.02-.001-.046-.01-.057-.01-.01-.01-.012-.033-.02v-.011l.333-.001v.011c-.028.005-.043.023-.037.032.012.017.021.032.042.053l.679.658v-.643c0-.02-.002-.071-.01-.082-.01-.011 0-.01-.024-.017v-.011h.268l-.001.01c-.01.008-.026.013-.04.03-.009.01-.003.066-.003.086v.876c0 .02.004.036.013.047.01.01.018.02.042.027l-.002.01-.297-.002v-.011c.018-.006.027-.013.027-.023s-.015-.03-.023-.04a1.056 1.056 0 0 0-.054-.057z" style="font-size:2.01557px;font-family:&quot;Copperplate Gothic Bold&quot;;letter-spacing:.0661458px;display:inline;fill:#efeeec;fill-opacity:1;stroke-width:.951547;stroke-opacity:.493562" transform="scale(.96264 1.0388)"/><path d="m20.34 17.66-.547.002-.086.145c-.014.029-.04.082-.037.098.003.02.002.035.04.044l-.002.01h-.3l.001-.01c.025-.004.042-.024.054-.035.013-.01.031-.063.048-.096l.367-.77.053-.113c.007-.016 0-.041-.032-.046v-.016h.342v.016c-.024.007-.028.017-.028.04 0 .021.042.084.059.115l.403.795c.023.043.038.073.05.086.014.013.006.016.033.021v.013l-.324-.003.003-.014c.032-.006.029-.03.027-.05-.002-.02-.028-.06-.044-.09zm-.093-.158-.187-.384-.187.384z" style="font-size:2.01557px;font-family:&quot;Copperplate Gothic Bold&quot;;letter-spacing:-.09525px;display:inline;fill:#efeeec;fill-opacity:1;stroke-width:.951547;stroke-opacity:.493562" transform="scale(.96264 1.0388)"/><path d="m21.193 17.785.702.004c.021 0 .07-.002.08-.011.011-.01.021-.01.028-.034h.014l.001.233H22a.075.075 0 0 0-.024-.027c-.011-.009-.044-.004-.065-.003l-.981.009v-.028c.023-.006.023-.014.032-.025.01-.012.014-.027.015-.048l.012-.881c0-.02-.004-.036-.013-.047-.01-.01-.01-.019-.034-.026v-.028l.29.001v.028c-.023.006-.03.013-.04.024-.01.01-.01.037-.01.058z" style="letter-spacing:.0105833px;fill:#efeeec;fill-opacity:1" transform="scale(.96264 1.0388)"/></g></g></svg>