<svg xmlns="http://www.w3.org/2000/svg" xml:space="preserve" width="300" height="300" viewBox="0 0 79.374998 79.375"><path d="M39.688 0C17.767 0 0 17.769 0 39.688c0 21.918 17.769 39.687 39.688 39.687 21.918 0 39.687-17.769 39.687-39.688C79.375 17.77 61.606 0 39.687 0Zm0 3.9c19.726 0 35.792 16.06 35.792 35.788 0 19.726-16.066 35.792-35.793 35.792C19.962 75.48 3.9 59.414 3.9 39.687 3.9 19.962 19.96 3.9 39.688 3.9Z" style="display:inline;fill:#fff;fill-opacity:1;stroke-width:1.02283"/><circle cx="40.543434" cy="13.086224" r="7.3111205" style="display:inline;fill:#fff;fill-opacity:1;stroke-width:1.09809"/><path d="M39.704 22.44c1.224-.015 3.21.21 5.158.838 2.011.65 3.815 1.812 4.786 2.83.304.317.647.698.935 1.122.288.424.522.89.724 1.32.554 1.169.804 1.917.894 2.214.567 1.862.746 3.738.36 5.812-.03.153-.245 1.083-.687 2.358-.443 1.276-1.11 2.898-1.812 4.568-.346.823-1.39 3.384-1.58 3.807-.67 1.489-1.59 3.132-1.224 3.287.04.017.662-.244 1.287-.65.68-.442 1.466-1.104 1.957-1.957.481-.895.753-1.476 1.128-2.16.397-.725.837-1.446 1.4-2.119-.507.839-.826 1.62-1.013 2.34a8.271 8.271 0 0 0-.248 2c-.018 1.251.174 2.34.19 3.276.227 1.292.399 2.568.535 3.816.137 1.247.238 2.466.243 3.645.008 2.358-.29 4.556-1.063 6.5-.768 1.934-2.028 3.614-3.951 4.816-1.924 1.201-4.51 1.924-7.873 2.02-5.562.097-9.632-1.842-11.868-5.444-1.133-1.825-1.787-4.079-1.933-6.688-.147-2.61.215-5.576 1.211-8.82.025-.08.454-1.498.751-2.442.297-.944.46-1.413.889-2.775.412-1.31 1.134-3.124 1.692-4.585.557-1.461.95-2.57 1.078-3.875.113-1.154-.17-2.126-.721-2.837-.552-.71-1.37-1.161-2.359-1.26-1.854-.186-4.73.736-6.4 4.593.072-4.904 4.136-9.616 7.935-12.236 2.054-1.416 3.958-2.265 5.598-2.736.82-.236 1.571-.398 2.241-.482.67-.084 1.259-.091 1.74-.097z" style="display:inline;fill:#fff;fill-opacity:1;stroke-width:.962001"/><path d="M65.249 20.122c.486 1.68.517 3.837.23 6.078-.289 2.25-1.14 4.584-2.367 6.675-1.16 1.976-4.026 5.172-4.612 5.694-2.6 2.31-3.58 3.9-4.064 6.363-.407 2.069-.361 2.842-.04 5.397.158 1.266.374 3.188.398 5.092.023 1.905-.145 3.79-.376 5.116-.614 3.53-1.99 6.227-4.029 8.185-.974.936-2.096 1.651-3.484 2.259-1.34.586-3.051.931-4.705 1.14a32.041 32.041 0 0 0 8.149-1.662 32.147 32.147 0 0 0 4.042-1.7c1.321-.67 2.604-1.45 3.868-2.31 2.526-1.72 4.768-3.818 6.774-6.328a31.82 31.82 0 0 0 5.078-8.971c.766-2.082 1.524-4.942 1.814-7.551.27-2.434.249-5.034-.07-7.6-.69-5.56-2.779-11.133-6.606-15.877z" style="fill:#fff;fill-opacity:1;stroke-width:.962001"/><path d="M41.358 20.324c-.445.045 1.066.126 1.694.242.631.117 1.544.32 2.093.478 1.096.317 2.038.696 2.854 1.1 1.689.834 2.918 1.69 3.692 2.327 2.76 2.27 4.465 4.935 5.401 7.187 1.04-2.241 1.946-4.684 2.547-7.54.408-2.468.373-4.483-.028-6.198-.402-1.715-1.127-3.114-2.123-4.285-.464-.545-.911-.975-1.56-1.402-.65-.428-1.502-.853-2.26-1.227-1.516-.748-3.172-1.452-4.959-1.946.566 1.16.916 2.532.917 3.837.001 1.306-.325 2.547-1.066 3.78-.651 1.083-1.722 2.137-2.978 2.803-.629.333-1.206.572-1.92.722-.71.148-1.494.184-2.304.122z" style="display:inline;fill:#fff;fill-opacity:1;stroke-width:.962001"/><path d="M33.121 8.36c-.773 1.035-1.166 2.266-1.314 3.473-.147 1.197-.095 2.38.32 3.502.417 1.131 1.36 2.506 2.638 3.493a7.351 7.351 0 0 0 4.281 1.535c-4.229.262-7.699 1.772-10.452 3.932a18.711 18.711 0 0 0-3.55 3.69c-.99 1.356-1.791 2.815-2.34 4.347-1.1 3.063-1.426 6.298-.933 9.366a18.237 18.237 0 0 0 1.33 4.442 19.801 19.801 0 0 0 2.343 3.994c-.65 2.737-1.116 4.992-1.245 7.067-.13 2.075.076 3.969.583 5.868.771 2.883 2.715 5.638 5.352 7.135 1.318.75 2.768 1.276 4.181 1.459.714.092 1.389.155 2.028.228.64.072 1.243.153 1.769.2a31.787 31.787 0 0 1-10.725-2.322 32.331 32.331 0 0 1-5.085-2.618 33.934 33.934 0 0 1-4.64-3.551c-2.915-2.65-5.371-5.907-7.188-9.718a32.508 32.508 0 0 1-2.221-6.127 34.076 34.076 0 0 1-.973-6.974 42.69 42.69 0 0 1 .094-3.274c.074-1.065.193-2.103.364-3.113.343-2.019.912-3.92 1.572-5.723a31.075 31.075 0 0 1 5.571-9.521 32.899 32.899 0 0 1 8.232-6.95 32.039 32.039 0 0 1 10.008-3.84z" style="fill:#fff;fill-opacity:1;stroke-width:.962001"/></svg>