<svg xmlns="http://www.w3.org/2000/svg" width="136pt" height="136pt" viewBox="0 0 136 136"><g fill="#fff"><path d="M72.13 57.86C78.7 41.1 90.04 26.94 99.94 12.1 93 29.47 84.31 46.87 84.04 65.97c-.73 4.81-2.83 9.31-4 14.03-2.08-7.57-4.91-14.9-7.91-22.14ZM36.21 12.35c13.06 20.19 26.67 40.61 33.61 63.87 4.77 15.49 5.42 32.94-1.8 47.8-5.58-6.1-11.08-12.29-16.71-18.34-4.97-4.72-10.26-9.1-15.32-13.71-1.55-11.73-2.97-23.87-8.72-34.42-2.75-5.24-6.71-9.72-11.19-13.55 9.67 4.75 19.18 10.41 26.23 18.72 4.37 4.98 7.46 10.94 9.69 17.15 1.15-10.29.58-20.79-2.05-30.81-3.31-12.68-8.99-24.55-13.74-36.71ZM105.84 53.83c4.13-4 8.96-7.19 14.04-9.84-4.4 3.88-8.4 8.32-11.14 13.55-5.75 10.56-7.18 22.71-8.74 34.45-5.32 5.35-10.68 10.65-15.98 16.01.15-4.37-.25-8.84 1.02-13.1 3.39-15.08 9.48-30.18 20.8-41.07Z" opacity="1.00"/></g></svg>