<svg xmlns="http://www.w3.org/2000/svg" width="136pt" height="136pt" viewBox="0 0 136 136"><path fill="#fff" d="M16 16c22.67 0 45.33 0 67.99.01C78.62 21.34 73.28 26.69 67.88 32c-11.96 0-23.92-.01-35.88 0-.01 12 .01 24-.01 36-5.32 5.3-10.64 10.6-15.98 15.89C15.99 61.26 16 38.63 16 16zm87.95 51.9c5.32-5.37 10.69-10.68 16.04-16.02.02 22.71.01 45.41 0 68.12-22.65 0-45.31.01-67.97-.01 5.33-5.33 10.65-10.67 15.99-15.99 12-.01 23.99.01 35.99 0 .04-12.04-.05-24.07-.05-36.1z" opacity="0.375"/><path fill="#fff" d="M100.02 16H120v19.99C92 64 64 92 35.99 120H16v-19.99C44 72 72 43.99 100.02 16z" opacity="1.00"/></svg>