<svg xmlns="http://www.w3.org/2000/svg" width="1400.0001220703125px" height="903.6193237304688px" x="0px" y="0px" style="enable-background:new 0 0 336 235.2" viewBox="0 0 1400.0001220703125 903.6193237304688"><path fill="none" d="M0 0h1400v903.62H0z" style="fill:#4a4aff;fill-opacity:0;pointer-events:none"/><defs><linearGradient id="c" x1="0" x2="1" y1="0" y2="0" gradientTransform="scale(-197.3674) rotate(85 .272 -2.178)" gradientUnits="userSpaceOnUse" spreadMethod="pad"><stop offset="0" style="stop-opacity:1;stop-color:#e71838"/><stop offset="0.5" style="stop-opacity:1;stop-color:#f2611e"/><stop offset="0.999999" style="stop-opacity:1;stop-color:#f7931b"/><stop offset="1" style="stop-opacity:1;stop-color:#f7931b"/></linearGradient><linearGradient id="d" x1="0" x2="1" y1="0" y2="0" gradientTransform="scale(-201.66482) rotate(85 -.02 -2.48)" gradientUnits="userSpaceOnUse" spreadMethod="pad"><stop offset="0" style="stop-opacity:1;stop-color:#e71838"/><stop offset="0.5" style="stop-opacity:1;stop-color:#f2611e"/><stop offset="0.999999" style="stop-opacity:1;stop-color:#f7931b"/><stop offset="1" style="stop-opacity:1;stop-color:#f7931b"/></linearGradient><linearGradient id="e" x1="0" x2="1" y1="0" y2="0" gradientTransform="translate(96.271 387.566) scale(203.52838)" gradientUnits="userSpaceOnUse" spreadMethod="pad"><stop offset="0" style="stop-opacity:1;stop-color:#f47718"/><stop offset="0.46935245" style="stop-opacity:1;stop-color:#f47718"/><stop offset="1" style="stop-opacity:1;stop-color:#f0eb1f"/></linearGradient><linearGradient id="f" x1="0" x2="1" y1="0" y2="0" gradientTransform="translate(96.271 344.196) scale(203.52838)" gradientUnits="userSpaceOnUse" spreadMethod="pad"><stop offset="0" style="stop-opacity:1;stop-color:#f47718"/><stop offset="0.46935245" style="stop-opacity:1;stop-color:#f47718"/><stop offset="1" style="stop-opacity:1;stop-color:#f0eb1f"/></linearGradient><linearGradient id="g" x1="0" x2="1" y1="0" y2="0" gradientTransform="translate(96.271 424.106) scale(203.52838)" gradientUnits="userSpaceOnUse" spreadMethod="pad"><stop offset="0" style="stop-opacity:1;stop-color:#f47718"/><stop offset="0.46935245" style="stop-opacity:1;stop-color:#f47718"/><stop offset="1" style="stop-opacity:1;stop-color:#f0eb1f"/></linearGradient><linearGradient id="h" x1="0" x2="1" y1="0" y2="0" gradientTransform="translate(96.271 398.262) scale(203.52838)" gradientUnits="userSpaceOnUse" spreadMethod="pad"><stop offset="0" style="stop-opacity:1;stop-color:#f47718"/><stop offset="0.46935245" style="stop-opacity:1;stop-color:#f47718"/><stop offset="1" style="stop-opacity:1;stop-color:#f0eb1f"/></linearGradient><linearGradient id="i" x1="0" x2="1" y1="0" y2="0" gradientTransform="translate(96.271 375.714) scale(203.52838)" gradientUnits="userSpaceOnUse" spreadMethod="pad"><stop offset="0" style="stop-opacity:1;stop-color:#f47718"/><stop offset="0.46935245" style="stop-opacity:1;stop-color:#f47718"/><stop offset="1" style="stop-opacity:1;stop-color:#f0eb1f"/></linearGradient><linearGradient id="j" x1="0" x2="1" y1="0" y2="0" gradientTransform="translate(96.271 360.83) scale(203.52838)" gradientUnits="userSpaceOnUse" spreadMethod="pad"><stop offset="0" style="stop-opacity:1;stop-color:#f47718"/><stop offset="0.46935245" style="stop-opacity:1;stop-color:#f47718"/><stop offset="1" style="stop-opacity:1;stop-color:#f0eb1f"/></linearGradient><linearGradient id="k" x1="0" x2="1" y1="0" y2="0" gradientTransform="translate(96.271 327.775) scale(203.52838)" gradientUnits="userSpaceOnUse" spreadMethod="pad"><stop offset="0" style="stop-opacity:1;stop-color:#f47718"/><stop offset="0.46935245" style="stop-opacity:1;stop-color:#f47718"/><stop offset="1" style="stop-opacity:1;stop-color:#f0eb1f"/></linearGradient><linearGradient id="l" x1="0" x2="1" y1="0" y2="0" gradientTransform="translate(96.271 307.203) scale(203.52838)" gradientUnits="userSpaceOnUse" spreadMethod="pad"><stop offset="0" style="stop-opacity:1;stop-color:#f47718"/><stop offset="0.46935245" style="stop-opacity:1;stop-color:#f47718"/><stop offset="1" style="stop-opacity:1;stop-color:#f0eb1f"/></linearGradient><linearGradient id="m" x1="0" x2="1" y1="0" y2="0" gradientTransform="rotate(180 360.212 193.6) scale(172.66626)" gradientUnits="userSpaceOnUse" spreadMethod="pad"><stop offset="0" style="stop-opacity:1;stop-color:#f47718"/><stop offset="0.46935245" style="stop-opacity:1;stop-color:#f47718"/><stop offset="1" style="stop-opacity:1;stop-color:#f0eb1f"/></linearGradient><linearGradient id="n" x1="0" x2="1" y1="0" y2="0" gradientTransform="rotate(180 360.212 171.914) scale(172.66626)" gradientUnits="userSpaceOnUse" spreadMethod="pad"><stop offset="0" style="stop-opacity:1;stop-color:#f47718"/><stop offset="0.46935245" style="stop-opacity:1;stop-color:#f47718"/><stop offset="1" style="stop-opacity:1;stop-color:#f0eb1f"/></linearGradient><linearGradient id="o" x1="0" x2="1" y1="0" y2="0" gradientTransform="rotate(180 360.212 211.87) scale(172.66626)" gradientUnits="userSpaceOnUse" spreadMethod="pad"><stop offset="0" style="stop-opacity:1;stop-color:#f47718"/><stop offset="0.46935245" style="stop-opacity:1;stop-color:#f47718"/><stop offset="1" style="stop-opacity:1;stop-color:#f0eb1f"/></linearGradient><linearGradient id="p" x1="0" x2="1" y1="0" y2="0" gradientTransform="rotate(180 360.212 198.58) scale(172.66626)" gradientUnits="userSpaceOnUse" spreadMethod="pad"><stop offset="0" style="stop-opacity:1;stop-color:#f47718"/><stop offset="0.46935245" style="stop-opacity:1;stop-color:#f47718"/><stop offset="1" style="stop-opacity:1;stop-color:#f0eb1f"/></linearGradient><linearGradient id="q" x1="0" x2="1" y1="0" y2="0" gradientTransform="rotate(180 360.212 181.548) scale(172.66626)" gradientUnits="userSpaceOnUse" spreadMethod="pad"><stop offset="0" style="stop-opacity:1;stop-color:#f47718"/><stop offset="0.46935245" style="stop-opacity:1;stop-color:#f47718"/><stop offset="1" style="stop-opacity:1;stop-color:#f0eb1f"/></linearGradient><linearGradient id="r" x1="0" x2="1" y1="0" y2="0" gradientTransform="rotate(180 360.212 163.789) scale(172.66626)" gradientUnits="userSpaceOnUse" spreadMethod="pad"><stop offset="0" style="stop-opacity:1;stop-color:#f47718"/><stop offset="0.46935245" style="stop-opacity:1;stop-color:#f47718"/><stop offset="1" style="stop-opacity:1;stop-color:#f0eb1f"/></linearGradient><linearGradient id="s" x1="0" x2="1" y1="0" y2="0" gradientTransform="rotate(180 360.212 152.072) scale(172.66626)" gradientUnits="userSpaceOnUse" spreadMethod="pad"><stop offset="0" style="stop-opacity:1;stop-color:#f47718"/><stop offset="0.46935245" style="stop-opacity:1;stop-color:#f47718"/><stop offset="1" style="stop-opacity:1;stop-color:#f0eb1f"/></linearGradient><clipPath id="a" clipPathUnits="userSpaceOnUse"><path d="M0 595.28h841.89V0H0Z"/></clipPath><clipPath id="b" clipPathUnits="userSpaceOnUse"><path d="M0 595.28h841.89V0H0Z"/></clipPath><clipPath id="t" clipPathUnits="userSpaceOnUse"><path d="M0 595.28h841.89V0H0Z"/></clipPath></defs><path fill="none" d="M0 0h1341.123v867.02H0z" style="fill:#201cff;fill-opacity:0;pointer-events:none" transform="translate(0 -2.323) scale(1.0439)"/><g style="fill:#f2f2f2"><path d="M992.036 430.784A340.408 337.848 0 0 1 651.628 768.63a340.408 337.848 0 0 1-340.407-337.847A340.408 337.848 0 0 1 651.628 92.936a340.408 337.848 0 0 1 340.408 337.848Z" style="fill:#f2f2f2;fill-rule:evenodd;stroke-width:1.08111" transform="translate(32.257 1.472) scale(1.0439)"/></g><g clip-path="url(#a)" transform="matrix(2.09423 0 0 -2.09423 -181.92 1159.26)"><path d="M0 0v-3.94h.897c.335 0 .578.018.727.056.194.049.356.131.484.247.129.116.234.308.315.575.081.266.121.629.121 1.089 0 .46-.04.814-.121 1.06a1.361 1.361 0 0 1-.341.576 1.14 1.14 0 0 1-.556.28C1.358-.02 1.03 0 .54 0Zm-1.201 1.006H.995c.495 0 .872-.037 1.131-.113a1.99 1.99 0 0 0 .897-.548c.249-.263.439-.584.569-.964.13-.38.195-.849.195-1.406 0-.49-.061-.913-.183-1.266-.149-.434-.361-.784-.637-1.052-.209-.203-.49-.361-.844-.474-.266-.084-.62-.126-1.063-.126h-2.261z" style="fill:#231f20;fill-opacity:1;fill-rule:nonzero;stroke:none" transform="translate(379.126 30.003)"/><path d="M0 0c-.008.33-.094.581-.256.753a.784.784 0 0 1-.592.258.79.79 0 0 1-.617-.273c-.162-.18-.243-.426-.24-.738Zm-.065-1.152 1.136-.191C.925-1.76.694-2.077.379-2.295c-.315-.218-.709-.327-1.183-.327-.749 0-1.304.245-1.664.735-.284.392-.426.887-.426 1.486 0 .713.187 1.273.561 1.677.373.405.845.607 1.416.607.641 0 1.147-.212 1.518-.635.37-.424.547-1.072.531-1.946h-2.857c.008-.338.1-.602.276-.789a.86.86 0 0 1 .657-.283c.179 0 .329.049.451.147.122.097.214.254.276.471" style="fill:#231f20;fill-opacity:1;fill-rule:nonzero;stroke:none" transform="translate(386.318 27.584)"/><path d="m0 0 1.145.175a.83.83 0 0 1 .296-.505c.149-.115.357-.173.625-.173.295 0 .517.054.665.162.101.076.15.178.15.305A.3.3 0 0 1 2.8.179c-.056.054-.184.104-.381.15C1.499.532.916.718.67.885a1.11 1.11 0 0 0-.512.969c0 .375.148.688.443.943.295.254.752.381 1.372.381.59 0 1.027-.096 1.315-.288.286-.192.483-.476.592-.853l-1.076-.198a.666.666 0 0 1-.262.386c-.128.088-.311.133-.549.133-.301 0-.515-.042-.645-.126a.268.268 0 0 1-.13-.231c0-.081.037-.15.114-.207.102-.075.457-.183 1.064-.32.608-.138 1.032-.308 1.273-.508.238-.202.357-.486.357-.848 0-.395-.165-.734-.495-1.018-.33-.285-.819-.427-1.465-.427-.587 0-1.052.119-1.394.357A1.65 1.65 0 0 0 0 0" style="fill:#231f20;fill-opacity:1;fill-rule:nonzero;stroke:none" transform="translate(387.811 26.289)"/><path d="M392.669 29.37h1.141v-4.311h-1.141zm0 1.639h1.141v-1.055h-1.141z" style="fill:#231f20;fill-opacity:1;fill-rule:nonzero;stroke:none"/><path d="M0 0c0-.457.088-.792.266-1.004a.818.818 0 0 1 .655-.318c.279 0 .514.108.706.326.192.218.289.54.289.968 0 .446-.093.778-.277.994a.873.873 0 0 1-.698.325.84.84 0 0 1-.675-.319C.088.76 0 .436 0 0m-1.019-2.528 1.303-.159c.022-.151.071-.255.15-.312.108-.081.279-.121.511-.121.298 0 .521.044.67.134.1.059.176.155.227.288.035.094.053.268.053.523v.629c-.341-.466-.771-.698-1.291-.698-.579 0-1.037.245-1.375.734-.266.388-.398.869-.398 1.446 0 .722.174 1.274.522 1.655.347.382.779.572 1.296.572.533 0 .973-.233 1.319-.702v.605h1.068v-3.868c0-.509-.042-.888-.126-1.14a1.412 1.412 0 0 0-.353-.592 1.557 1.557 0 0 0-.607-.337c-.253-.081-.573-.122-.96-.122-.73 0-1.249.125-1.554.376-.306.25-.459.567-.459.951 0 .038.002.084.004.138" style="fill:#231f20;fill-opacity:1;fill-rule:nonzero;stroke:none" transform="translate(395.726 27.303)"/><path d="M0 0h-1.141v2.2c0 .465-.024.766-.072.903a.632.632 0 0 1-.634.432.922.922 0 0 1-.531-.162.817.817 0 0 1-.323-.431c-.058-.178-.087-.508-.087-.99V0h-1.141v4.311h1.06v-.634c.376.487.849.73 1.42.73.252 0 .482-.045.69-.136.208-.09.366-.206.473-.346a1.26 1.26 0 0 0 .223-.48c.042-.178.063-.433.063-.766Z" style="fill:#231f20;fill-opacity:1;fill-rule:nonzero;stroke:none" transform="translate(403.644 25.06)"/><path d="M0 0c-.008.33-.093.581-.255.753a.786.786 0 0 1-.593.258.79.79 0 0 1-.617-.273c-.162-.18-.242-.426-.24-.738Zm-.065-1.152 1.137-.191C.925-1.76.695-2.077.379-2.295c-.315-.218-.709-.327-1.182-.327-.75 0-1.304.245-1.664.735-.284.392-.427.887-.427 1.486 0 .713.187 1.273.561 1.677.373.405.845.607 1.416.607.641 0 1.147-.212 1.518-.635.371-.424.547-1.072.531-1.946h-2.857c.009-.338.1-.602.276-.789a.861.861 0 0 1 .658-.283c.178 0 .329.049.45.147.122.097.214.254.276.471" style="fill:#231f20;fill-opacity:1;fill-rule:nonzero;stroke:none" transform="translate(407.194 27.584)"/><path d="M0 0c0-.46.063-.792.191-.998.184-.298.441-.446.771-.446.262 0 .485.112.669.335.184.223.276.556.276 1 0 .495-.089.851-.267 1.069a.849.849 0 0 1-.686.327.86.86 0 0 1-.68-.322C.091.749 0 .428 0 0m3.044-2.248h-1.06v.633a1.699 1.699 0 0 0-.623-.55 1.6 1.6 0 0 0-.724-.181c-.495 0-.919.2-1.272.6-.353.398-.53.955-.53 1.669 0 .731.172 1.286.516 1.667a1.68 1.68 0 0 0 1.302.569c.482 0 .899-.2 1.25-.6v2.142h1.141z" style="fill:#231f20;fill-opacity:1;fill-rule:nonzero;stroke:none" transform="translate(409.999 27.307)"/><path d="M0 0c0-.446.07-.776.211-.99.198-.303.46-.454.788-.454.251 0 .465.107.643.323.177.214.266.554.266 1.016 0 .493-.09.847-.268 1.065a.849.849 0 0 1-.686.327.858.858 0 0 1-.682-.319C.091.756 0 .434 0 0m-1.132-2.248v5.949h1.14V1.559c.352.4.768.6 1.25.6.525 0 .959-.19 1.303-.569.343-.381.515-.927.515-1.638 0-.736-.175-1.303-.525-1.701-.351-.397-.776-.597-1.277-.597-.246 0-.489.063-.728.186a1.739 1.739 0 0 0-.619.545v-.633z" style="fill:#231f20;fill-opacity:1;fill-rule:nonzero;stroke:none" transform="translate(417.227 27.307)"/><path d="M0 0h1.213l1.031-3.061L3.251 0h1.181L2.91-4.148l-.272-.75a3.12 3.12 0 0 0-.286-.578 1.282 1.282 0 0 0-.313-.322 1.377 1.377 0 0 0-.434-.192 2.256 2.256 0 0 0-.583-.07c-.218 0-.434.024-.645.07l-.101.892a2.53 2.53 0 0 1 .483-.052c.265 0 .461.078.588.233.128.155.225.354.293.595z" style="fill:#231f20;fill-opacity:1;fill-rule:nonzero;stroke:none" transform="translate(420.515 29.37)"/><path d="m0 0-1.731-5.825v-3.307h-2.201v3.307L-5.601 0h2.181c.341-1.782.534-2.981.577-3.599.132.973.353 2.175.661 3.599z" style="fill:#231f20;fill-opacity:1;fill-rule:nonzero;stroke:none" transform="translate(433.361 34.192)"/><path d="M0 0c-.365-.268-.577-.491-.636-.672-.057-.178-.087-.438-.087-.776 0-.39.027-.638.077-.751.05-.114.152-.169.302-.169.143 0 .237.043.28.132.043.089.064.322.064.696Zm-.723 1.027h-2.136v.503c0 .576.066 1.025.199 1.337.134.317.402.593.804.835.403.239.924.359 1.569.359.769 0 1.35-.135 1.742-.409.391-.272.626-.606.705-1.003.078-.398.118-1.213.118-2.45v-3.758H.062v.666a1.484 1.484 0 0 0-.54-.601 1.492 1.492 0 0 0-.786-.199c-.399 0-.764.11-1.096.334-.333.224-.499.714-.499 1.469v.617c0 .558.088.941.263 1.144.179.202.616.439 1.315.711.749.292 1.149.491 1.203.593.052.1.078.306.078.619 0 .39-.029.647-.088.764a.297.297 0 0 1-.29.177c-.154 0-.25-.048-.288-.15-.037-.098-.057-.356-.057-.773Z" style="fill:#231f20;fill-opacity:1;fill-rule:nonzero;stroke:none" transform="translate(435.938 28.619)"/><path d="m0 0-1.066-7.484h-2.978L-5.188 0h2.035l.641-5.466c.05.402.135 1.383.256 2.939.066.868.14 1.711.222 2.527z" style="fill:#231f20;fill-opacity:1;fill-rule:nonzero;stroke:none" transform="translate(443.717 32.545)"/><path d="M446.396 25.06h-2.346v7.484h2.346zm0 7.942h-2.346v1.19h2.346z" style="fill:#231f20;fill-opacity:1;fill-rule:nonzero;stroke:none"/><path d="m0 0-.038-.69c.164.276.367.481.606.62.24.137.514.205.827.205.39 0 .709-.092.959-.277.248-.183.407-.417.477-.696.072-.278.107-.748.107-1.401v-5.245H.661v5.183c0 .516-.016.828-.052.943-.034.113-.127.168-.28.168-.163 0-.265-.065-.306-.194-.041-.132-.061-.478-.061-1.042v-5.058h-2.278V0Z" style="fill:#231f20;fill-opacity:1;fill-rule:nonzero;stroke:none" transform="translate(449.53 32.545)"/><path d="M0 0h-1.094l-1.844 5.005h1.108l1.28-3.818L.729 5.005h1.109Z" style="fill:#231f20;fill-opacity:1;fill-rule:nonzero;stroke:none" transform="translate(377.282 79.706)"/><path d="M0 0v5.005h2.574v-.908H1.008V2.981h1.345v-.893H1.008V.901h1.631V0Z" style="fill:#231f20;fill-opacity:1;fill-rule:nonzero;stroke:none" transform="translate(383.073 79.706)"/><path d="M0 0c-.772 0-1.4.245-1.884.736-.484.492-.726 1.111-.726 1.86 0 .738.247 1.355.74 1.851.494.496 1.117.743 1.87.743.577 0 1.073-.152 1.487-.457l-.286-.886c-.376.266-.777.4-1.201.4-.453 0-.826-.157-1.119-.472-.293-.314-.44-.708-.44-1.179 0-.482.147-.878.44-1.188C-.826 1.099-.453.943 0 .943c.438 0 .854.136 1.244.409l.286-.88C1.106.157.596 0 0 0" style="fill:#231f20;fill-opacity:1;fill-rule:nonzero;stroke:none" transform="translate(392.29 79.613)"/><path d="M0 0v4.097h-1.172v.908h3.346v-.908H1.008V0Z" style="fill:#231f20;fill-opacity:1;fill-rule:nonzero;stroke:none" transform="translate(398.782 79.706)"/><path d="M0 0a1.457 1.457 0 0 1-1.112.472C-1.56.472-1.931.314-2.224 0c-.293-.314-.44-.708-.44-1.18 0-.481.147-.878.44-1.187.293-.31.664-.465 1.112-.465.448 0 .819.155 1.112.465.293.309.439.706.439 1.187C.439-.708.293-.314 0 0m.761-3.035c-.486-.494-1.111-.74-1.873-.74-.763 0-1.387.246-1.873.74-.487.493-.73 1.111-.73 1.855 0 .739.244 1.356.733 1.852s1.112.743 1.87.743S.269 1.168.758.672c.488-.496.733-1.113.733-1.852 0-.744-.243-1.362-.73-1.855" style="fill:#231f20;fill-opacity:1;fill-rule:nonzero;stroke:none" transform="translate(408.26 83.388)"/><path d="M0 0h.472c.195 0 .359.06.489.18.132.118.197.283.197.493 0 .2-.065.358-.197.475-.13.117-.311.175-.539.175H0Zm-1.008-2.81v5.005H.5c.53 0 .944-.14 1.245-.422.3-.281.45-.635.45-1.065 0-.295-.068-.558-.204-.786a1.448 1.448 0 0 0-.554-.536L2.624-2.81H1.509L.536-.851H0V-2.81Z" style="fill:#231f20;fill-opacity:1;fill-rule:nonzero;stroke:none" transform="translate(414.884 82.515)"/><path d="M0 0v5.005h1.008V.908h1.631V0Z" style="fill:#231f20;fill-opacity:1;fill-rule:nonzero;stroke:none" transform="translate(426.696 79.706)"/><path d="M0 0a1.458 1.458 0 0 1-1.112.472c-.449 0-.819-.158-1.113-.472-.293-.314-.439-.708-.439-1.18 0-.481.146-.878.439-1.187.294-.31.664-.465 1.113-.465.448 0 .818.155 1.112.465.293.309.439.706.439 1.187C.439-.708.293-.314 0 0m.761-3.035c-.487-.494-1.111-.74-1.873-.74-.763 0-1.387.246-1.873.74-.487.493-.73 1.111-.73 1.855 0 .739.244 1.356.733 1.852s1.112.743 1.87.743S.269 1.168.758.672c.488-.496.732-1.113.732-1.852 0-.744-.243-1.362-.729-1.855" style="fill:#231f20;fill-opacity:1;fill-rule:nonzero;stroke:none" transform="translate(436.546 83.388)"/><path d="M0 0c.467 0 .869-.087 1.208-.261.339-.174.594-.363.766-.568l-.637-.657c-.334.366-.766.549-1.294.549-.481 0-.867-.157-1.155-.471-.288-.315-.433-.71-.433-1.187 0-.501.149-.901.447-1.201.298-.301.678-.451 1.141-.451.305 0 .56.044.765.133.205.088.35.175.436.26v.616H.293v.85h1.895v-1.98a3.63 3.63 0 0 0-.965-.611C.889-5.12.481-5.19 0-5.19c-.729 0-1.345.239-1.845.718-.501.479-.751 1.105-.751 1.877 0 .729.244 1.344.733 1.845C-1.374-.25-.754 0 0 0" style="fill:#231f20;fill-opacity:1;fill-rule:nonzero;stroke:none" transform="translate(444.493 84.803)"/><path d="M0 0a1.458 1.458 0 0 1-1.112.472c-.449 0-.819-.158-1.113-.472-.293-.314-.439-.708-.439-1.18 0-.481.146-.878.439-1.187.294-.31.664-.465 1.113-.465.448 0 .818.155 1.112.465.293.309.439.706.439 1.187C.439-.708.293-.314 0 0m.761-3.035c-.487-.494-1.111-.74-1.873-.74-.763 0-1.387.246-1.873.74-.487.493-.73 1.111-.73 1.855 0 .739.244 1.356.733 1.852s1.112.743 1.87.743S.269 1.168.758.672c.488-.496.732-1.113.732-1.852 0-.744-.243-1.362-.729-1.855" style="fill:#231f20;fill-opacity:1;fill-rule:nonzero;stroke:none" transform="translate(454.386 83.388)"/><path d="M503.399 81.125h-41.612v1.155h41.612zM368.605 81.125h-41.611v1.155h41.611z" style="fill:#231f20;fill-opacity:1;fill-rule:nonzero;stroke:none"/><path d="m0 0 5.312 2.624a4.83 4.83 0 0 1 1.376-1.568c.577-.427 1.141-.64 1.697-.64.938 0 1.407.33 1.407.991 0 .405-.314.789-.943 1.153-.63.362-1.387.741-2.273 1.135-.885.395-1.775.859-2.672 1.393-.895.532-1.659 1.301-2.288 2.304C.987 8.395.673 9.557.673 10.88c0 2.111.709 3.792 2.128 5.04 1.418 1.248 3.29 1.872 5.615 1.872 1.217 0 2.305-.192 3.265-.576.96-.384 1.727-.892 2.303-1.521.577-.629 1.019-1.205 1.329-1.727a9.004 9.004 0 0 0 .751-1.616l-5.28-2.369a7.05 7.05 0 0 1-.384.737c-.107.17-.261.373-.463.607a1.944 1.944 0 0 1-.72.528 2.443 2.443 0 0 1-.96.176c-.385 0-.684-.095-.897-.288a.941.941 0 0 1-.32-.735c0-.448.314-.86.944-1.233a19.3 19.3 0 0 1 2.304-1.135 27.666 27.666 0 0 0 2.704-1.328c.897-.501 1.659-1.216 2.288-2.144.629-.929.945-2.022.945-3.28 0-2.198-.704-3.968-2.113-5.313-1.408-1.344-3.382-2.015-5.92-2.015-1.237 0-2.368.203-3.391.608-1.025.404-1.857.922-2.496 1.552-.641.629-1.142 1.21-1.504 1.744A6.602 6.602 0 0 0 0 0" style="fill:#231f20;fill-opacity:1;fill-rule:nonzero;stroke:none" transform="translate(314.463 51.012)"/><path d="M0 0v22.4h6.368v-8.96l5.823 8.96h7.073l-7.456-10.72L19.52 0h-7.264L6.368 9.152V0Z" style="fill:#231f20;fill-opacity:1;fill-rule:nonzero;stroke:none" transform="translate(333.408 45.988)"/><path d="M0 0v16.832h-4.576V22.4h15.585v-5.568H6.368V0Z" style="fill:#231f20;fill-opacity:1;fill-rule:nonzero;stroke:none" transform="translate(364.64 45.988)"/><path d="M0 0h4.16c-.043.448-.245.864-.607 1.248-.364.384-.854.576-1.473.576-.661 0-1.163-.197-1.504-.592C.234.837.043.427 0 0m-6.527-1.92c0 2.453.778 4.507 2.336 6.16 1.556 1.654 3.604 2.48 6.143 2.48 2.752 0 4.859-.816 6.32-2.448 1.461-1.631 2.192-3.941 2.192-6.928 0-.32-.022-.694-.064-1.119H-.16c.342-1.367 1.323-2.049 2.944-2.049.683 0 1.307.165 1.872.496.566.331.954.667 1.168 1.009l4.224-2.945c-.341-.725-1.157-1.531-2.447-2.416-1.291-.885-2.929-1.328-4.913-1.328-2.794 0-5.029.875-6.704 2.624C-5.69-6.635-6.527-4.479-6.527-1.92" style="fill:#231f20;fill-opacity:1;fill-rule:nonzero;stroke:none" transform="translate(381.855 56.58)"/><path d="M394.24 69.124h6.208V45.988h-6.208z" style="fill:#231f20;fill-opacity:1;fill-rule:nonzero;stroke:none"/><path d="M0 0h4.16c-.043.448-.245.864-.607 1.248-.364.384-.854.576-1.473.576-.661 0-1.163-.197-1.504-.592C.234.837.043.427 0 0m-6.527-1.92c0 2.453.778 4.507 2.336 6.16 1.556 1.654 3.604 2.48 6.143 2.48 2.752 0 4.859-.816 6.32-2.448 1.461-1.631 2.192-3.941 2.192-6.928 0-.32-.022-.694-.064-1.119H-.16c.342-1.367 1.323-2.049 2.944-2.049.683 0 1.307.165 1.872.496.566.331.954.667 1.168 1.009l4.224-2.945c-.341-.725-1.157-1.531-2.447-2.416-1.291-.885-2.929-1.328-4.913-1.328-2.794 0-5.029.875-6.704 2.624C-5.69-6.635-6.527-4.479-6.527-1.92" style="fill:#231f20;fill-opacity:1;fill-rule:nonzero;stroke:none" transform="translate(408.99 56.58)"/><path d="m0 0-1.632-5.12c-.917.683-1.909 1.024-2.975 1.024-1.11 0-1.968-.331-2.577-.992-.608-.661-.912-1.482-.912-2.464 0-1.067.347-1.915 1.04-2.544.694-.63 1.584-.944 2.672-.944s2.027.299 2.817.896l1.599-4.96c-1.302-.853-2.955-1.28-4.96-1.28-2.773 0-5.023.821-6.752 2.464-1.728 1.643-2.592 3.766-2.592 6.368 0 2.581.896 4.709 2.688 6.384C-9.792.507-7.552 1.344-4.863 1.344-2.901 1.344-1.279.896 0 0" style="fill:#231f20;fill-opacity:1;fill-rule:nonzero;stroke:none" transform="translate(434.815 61.956)"/><path d="M0 0c-.598-.651-.896-1.51-.896-2.576 0-1.068.298-1.92.896-2.561.598-.639 1.365-.96 2.305-.96.938 0 1.706.321 2.303.96.597.641.896 1.493.896 2.561 0 1.066-.299 1.925-.896 2.576-.597.65-1.365.976-2.303.976C1.365.976.598.65 0 0m9.024 3.775c1.792-1.674 2.688-3.792 2.688-6.351 0-2.561-.896-4.678-2.688-6.353-1.792-1.675-4.032-2.511-6.719-2.511-2.689 0-4.929.836-6.721 2.511-1.792 1.675-2.688 3.792-2.688 6.353 0 2.559.896 4.677 2.688 6.351C-2.624 5.45-.384 6.287 2.305 6.287c2.687 0 4.927-.837 6.719-2.512" style="fill:#231f20;fill-opacity:1;fill-rule:nonzero;stroke:none" transform="translate(442.719 57.012)"/><path d="M0 0v-10.88h-6.208V-.8c0 .533-.149.96-.447 1.28-.3.32-.695.48-1.185.48-.47 0-.843-.165-1.12-.496-.277-.331-.416-.752-.416-1.264v-10.08h-6.176v9.952c0 1.259-.533 1.888-1.599 1.888-1.025 0-1.536-.598-1.536-1.792V-10.88h-6.209V6.017h6.048V4.416c.874 1.344 2.241 2.016 4.096 2.016 1.814 0 3.232-.661 4.256-1.984 1.174 1.323 2.741 1.984 4.704 1.984 1.835 0 3.259-.608 4.272-1.824C-.507 3.393 0 1.856 0 0" style="fill:#231f20;fill-opacity:1;fill-rule:nonzero;stroke:none" transform="translate(481.31 56.868)"/><path d="M0 0v16.832h-4.576V22.4h15.584v-5.568H6.367V0Z" style="fill:#231f20;fill-opacity:1;fill-rule:nonzero;stroke:none" transform="translate(494.143 45.988)"/><path d="m0 0-1.44 5.184 4.608 1.472h5.216v-22.4H2.08V.576z" style="fill:#231f20;fill-opacity:1;fill-rule:nonzero;stroke:none" transform="translate(507.326 61.732)"/></g><g clip-path="url(#b)" transform="matrix(2.09423 0 0 -2.09423 -181.92 1159.26)"><path d="M0 0c-79.557 0-144.05 64.493-144.05 144.05 0 79.556 64.493 144.051 144.05 144.051 79.556 0 144.05-64.495 144.05-144.051C144.05 64.493 79.556 0 0 0m0 355.22c-116.626 0-211.17-94.544-211.17-211.17C-211.17 27.424-116.626-67.119 0-67.119c116.625 0 211.17 94.543 211.17 211.169S116.625 355.22 0 355.22" style="fill:#e71838;fill-opacity:1;fill-rule:nonzero;stroke:none" transform="translate(421.19 194.277)"/><path d="M0 0c.697.812.987 1.626.871 2.442C.755 3.261.239 4.059-.677 4.84l-1.138.969L-6.018.914l1.347-1.147C-2.95-1.7-1.393-1.622 0 0m6.523-5.196C5.359-6.552 3.981-7.461 2.39-7.924c-1.591-.465-3.273-.441-5.045.071-1.771.512-3.504 1.489-5.198 2.932L-9.686-3.36l-5.472-6.375-5.997 5.107 17.022 19.833L4.03 8.252c2.804-2.39 4.401-4.668 4.791-6.835.39-2.168-.376-4.372-2.298-6.613" style="fill:#fff;fill-opacity:1;fill-rule:nonzero;stroke:none" transform="translate(308.84 206.672)"/><path d="M0 0c-.167.279-.427.608-.779.986-.352.378-.665.661-.938.85-2.132 1.471-4.04.959-5.721-1.535l-4.591-6.81-6.458 4.456L-7.9 13.649l6.458-4.455-1.86-2.759.06-.042c1.063.719 2.132 1.086 3.208 1.101 1.076.014 2.099-.314 3.069-.982.353-.245.62-.519.8-.823Z" style="fill:#fff;fill-opacity:1;fill-rule:nonzero;stroke:none" transform="translate(327.078 186.404)"/><path d="M0 0c1.172 2.243.92 3.824-.755 4.744-1.676.919-3.127.203-4.355-2.147-1.296-2.478-1.095-4.184.601-5.115C-2.854-3.425-1.352-2.587 0 0m6.803-3.691C5.351-6.47 3.39-8.205.921-8.894c-2.468-.689-5.174-.226-8.117 1.388-2.921 1.604-4.791 3.628-5.61 6.072-.818 2.444-.515 5.029.91 7.754.914 1.75 2.089 3.058 3.526 3.927 1.438.868 3.042 1.257 4.816 1.169 1.772-.089 3.58-.639 5.423-1.65 1.905-1.046 3.37-2.313 4.392-3.798 1.023-1.487 1.574-3.073 1.656-4.761.081-1.687-.29-3.32-1.114-4.898" style="fill:#fff;fill-opacity:1;fill-rule:nonzero;stroke:none" transform="translate(339.815 176.98)"/><path d="M0 0c-1.066-.249-2.564-.294-4.493-.133-1.929.162-3.71.514-5.344 1.057-4.221 1.401-7.151 3.611-8.79 6.63-1.64 3.018-1.869 6.562-.687 10.633.792 2.731 2.075 4.962 3.848 6.698 1.774 1.734 3.872 2.802 6.297 3.205 2.424.403 5.062.13 7.917-.818 2.093-.695 4.234-1.752 6.423-3.176l-1.965-6.771c-.952.907-1.907 1.635-2.865 2.182-.957.548-2.041 1.022-3.249 1.424-1.993.661-3.765.548-5.318-.341-1.553-.889-2.654-2.452-3.303-4.693-.622-2.142-.614-3.983.026-5.521.64-1.538 1.849-2.602 3.629-3.193.829-.275 1.452-.43 1.872-.464l1.068 3.681-1.724.582 1.705 5.873 8.976-2.991z" style="fill:#fff;fill-opacity:1;fill-rule:nonzero;stroke:none" transform="translate(375.215 154.181)"/><path d="M0 0c-.017-.524.119-.966.409-1.323.291-.358.715-.555 1.272-.591.762-.051 1.39.222 1.882.815.493.593.756 1.378.789 2.354l.024.73-2.47-.214C.67 1.628.035 1.037 0 0m4.083-6.807.098 2.924-.069.005C2.876-6.063 1.064-7.077-1.325-6.92c-1.649.108-2.923.731-3.82 1.867-.897 1.136-1.315 2.604-1.256 4.404.126 3.774 2.309 5.822 6.549 6.144l4.356.333c.02.625-.218 1.154-.717 1.588-.499.434-1.181.679-2.045.736-1.957.128-4.042-.348-6.256-1.429l.173 5.192c.959.388 2.155.679 3.586.873 1.432.193 2.654.258 3.667.191 2.969-.196 5.099-1.035 6.389-2.516 1.29-1.482 1.882-3.853 1.773-7.114l-.352-10.593Z" style="fill:#fff;fill-opacity:1;fill-rule:nonzero;stroke:none" transform="translate(388.464 157.053)"/><path d="m0 0 .136 11.094c.011.927-.131 1.623-.428 2.085-.297.462-.787.698-1.473.708-.672.01-1.2-.262-1.584-.814-.382-.552-.58-1.324-.592-2.313L-4.072.061l-7.289.108.133 10.906c.024 1.968-.574 2.96-1.794 2.979-.742.01-1.303-.267-1.687-.831-.384-.565-.582-1.38-.595-2.446L-15.433.229l-7.289.109.236 19.253 7.289-.109-.038-3.045h.068c.282.535.724 1.077 1.33 1.625.606.548 1.287.99 2.044 1.324a5.773 5.773 0 0 0 2.453.48c1.243-.017 2.287-.304 3.13-.854.843-.552 1.542-1.415 2.098-2.589.631 1.068 1.461 1.887 2.496 2.454 1.033.568 2.177.843 3.431.823 1.836-.027 3.238-.705 4.203-2.035.964-1.331 1.432-3.237 1.402-5.72L7.271-.106Z" style="fill:#fff;fill-opacity:1;fill-rule:nonzero;stroke:none" transform="translate(427.432 147.739)"/><path d="M0 0c-.284 2.141-1.151 3.102-2.6 2.886-.604-.09-1.073-.459-1.406-1.107-.332-.648-.469-1.46-.409-2.437Zm-3.844-4.696c.232-.779.747-1.339 1.55-1.683.802-.343 1.813-.422 3.032-.24a11.8 11.8 0 0 1 4.689 1.753l.65-4.896c-1.668-1.012-3.763-1.708-6.284-2.083-3.057-.457-5.546.017-7.465 1.419-1.921 1.404-3.072 3.555-3.458 6.455-.265 1.995-.125 3.809.421 5.445a8.62 8.62 0 0 0 2.844 4.075c1.349 1.083 2.91 1.757 4.678 2.019 1.814.271 3.416.127 4.804-.429A7.21 7.21 0 0 0 4.97 4.422C5.816 3.167 6.361 1.634 6.602-.18l.385-2.901z" style="fill:#fff;fill-opacity:1;fill-rule:nonzero;stroke:none" transform="translate(450.88 162.094)"/><path d="m0 0 6.328-19.614-7.766-2.506-6.329 19.613-7.175-2.315-1.953 6.05L5.313 8.393l1.953-6.049z" style="fill:#fff;fill-opacity:1;fill-rule:nonzero;stroke:none" transform="translate(477.615 177.65)"/><path d="M0 0c-.887 1.974-2.017 2.632-3.39 1.975-.573-.274-.931-.774-1.078-1.5-.146-.728-.051-1.553.285-2.476zm-2.474-5.715c.449-.679 1.12-1.059 2.01-1.141.891-.082 1.914.152 3.07.706A12.685 12.685 0 0 1 6.75-3.011l2.029-4.516c-1.365-1.493-3.24-2.809-5.63-3.952-2.897-1.385-5.494-1.699-7.791-.941-2.297.757-4.046 2.474-5.249 5.149-.827 1.84-1.202 3.632-1.126 5.376.078 1.744.631 3.345 1.663 4.807 1.029 1.461 2.382 2.593 4.058 3.395 1.719.821 3.344 1.178 4.877 1.071a7.253 7.253 0 0 0 4.088-1.581c1.193-.946 2.166-2.256 2.918-3.928L7.79-.808Z" style="fill:#fff;fill-opacity:1;fill-rule:nonzero;stroke:none" transform="translate(498.74 177.253)"/><path d="M0 0c.267-.422.618-.684 1.054-.784.436-.102.898.005 1.386.318.668.431 1.049 1.029 1.144 1.798.095.768-.105 1.543-.602 2.326l-.372.588L.649 2.56C-.312 1.687-.529.833 0 0m7.088-2.818L5.599-.469l-.06-.038c.136-2.472-.843-4.381-2.935-5.727-1.445-.929-2.849-1.226-4.213-.887-1.365.338-2.505 1.229-3.422 2.676-1.922 3.032-1.188 5.978 2.203 8.839l3.481 2.94c-.318.501-.803.77-1.455.802-.652.033-1.357-.195-2.114-.681-1.714-1.103-3.21-2.759-4.49-4.968l-2.644 4.174c.598.893 1.446 1.856 2.545 2.888 1.1 1.032 2.092 1.834 2.979 2.405 2.599 1.673 4.84 2.325 6.72 1.96 1.881-.367 3.652-1.861 5.314-4.482L12.901.923z" style="fill:#fff;fill-opacity:1;fill-rule:nonzero;stroke:none" transform="translate(515.656 180.709)"/><path d="m0 0-6.771 8.058c-.567.673-1.109 1.074-1.627 1.203-.519.128-1.049-.04-1.591-.502-.533-.455-.78-1.013-.737-1.672.042-.66.367-1.35.97-2.068l6.529-7.771-5.772-4.927-6.656 7.921c-1.201 1.43-2.286 1.733-3.253.907-.587-.502-.856-1.086-.805-1.754.049-.669.4-1.391 1.05-2.165l6.437-7.661-5.772-4.925-11.753 13.983 5.773 4.927 1.861-2.212.054.046c-.113.576-.102 1.269.033 2.08.134.809.392 1.594.779 2.352.386.76.927 1.437 1.622 2.03.985.84 1.979 1.352 2.981 1.536 1.002.181 2.085.042 3.249-.418a6.565 6.565 0 0 0 .43 3.473c.457 1.119 1.184 2.101 2.177 2.949 1.454 1.241 2.972 1.714 4.553 1.422 1.581-.292 3.128-1.34 4.642-3.143L5.76 4.915Z" style="fill:#fff;fill-opacity:1;fill-rule:nonzero;stroke:none" transform="translate(551.78 200.762)"/><path d="M0 0c.845-1.537 1.183-3.108 1.014-4.716C.845-6.323.196-7.83-.932-9.233c-1.128-1.405-2.701-2.702-4.719-3.892-2.34-1.378-4.707-2.233-7.101-2.563l-3.484 6.333a14.14 14.14 0 0 1 4.048.113c1.373.233 2.549.638 3.526 1.214.739.436 1.236.91 1.491 1.423.254.513.237 1.032-.052 1.559-.207.376-.49.646-.85.811-.359.166-.812.25-1.359.256-.547.004-1.495-.106-2.844-.332-4.386-.692-7.455.557-9.211 3.747-1.229 2.234-1.39 4.505-.483 6.811.908 2.306 2.745 4.274 5.512 5.904a26.083 26.083 0 0 0 4.125 1.984c.589.218 1.441.478 2.557.78l3.236-5.881c-2.469-.046-4.612-.606-6.433-1.678-.748-.442-1.272-.942-1.569-1.502-.299-.56-.309-1.092-.031-1.597.266-.483.67-.775 1.214-.874.544-.099 1.542-.055 2.995.133 2.851.4 5.074.308 6.669-.274C-2.101 2.66-.869 1.579 0 0" style="fill:#fff;fill-opacity:1;fill-rule:nonzero;stroke:none" transform="translate(341.391 490.526)"/><path d="m0 0-9.564 7.983c-.695.661-1.139 1.129-1.332 1.406l-.083-.037 4.993-11.97-7.163-3.133-10.157 24.348 7.163 3.133 4.831-11.58.083.037c-.045.703-.044 1.373.004 2.009l.621 11.956 8.489 3.713L-4.019 13.3 8.689 3.8Z" style="fill:#fff;fill-opacity:1;fill-rule:nonzero;stroke:none" transform="translate(360.877 490.456)"/><path d="M0 0c-.277-.249-.753-.538-1.428-.868-.675-.33-1.51-.62-2.503-.87-1.901-.48-3.504-.258-4.808.666-1.304.923-2.171 2.488-2.598 4.693l-1.455 7.495-2.251-.344 5.783 12.5.721-6.121 4.963 1.308 1.045-5.392-3.412-.86 1.087-5.61c.318-1.646 1.049-2.324 2.192-2.035.533.134 1.073.411 1.62.83z" style="fill:#fff;fill-opacity:1;fill-rule:nonzero;stroke:none" transform="translate(392.948 500.569)"/><path d="M0 0c-.219 2.221-1.052 3.244-2.495 3.07-.603-.072-1.079-.438-1.428-1.095-.349-.658-.509-1.493-.478-2.505Zm-3.952-4.722c.207-.814.703-1.41 1.489-1.792.785-.382 1.787-.5 3.004-.353 1.694.204 3.262.754 4.704 1.652l.502-5.081c-1.686-.991-3.786-1.637-6.298-1.939-3.048-.367-5.504.207-7.368 1.722-1.865 1.515-2.945 3.779-3.243 6.79-.205 2.07-.013 3.94.576 5.611.588 1.67 1.569 3.042 2.941 4.114 1.374 1.073 2.941 1.715 4.704 1.927 1.808.217 3.393.015 4.755-.608 1.362-.624 2.444-1.598 3.248-2.923.805-1.325 1.3-2.929 1.486-4.81l.297-3.011z" style="fill:#fff;fill-opacity:1;fill-rule:nonzero;stroke:none" transform="translate(407.078 513.058)"/><path d="m0 0-.372 27.188 6.438.124L6.437.125Z" style="fill:#fff;fill-opacity:1;fill-rule:nonzero;stroke:none" transform="translate(417.802 501.463)"/><path d="M0 0c.159 2.268-.455 3.468-1.844 3.602-.578.056-1.087-.207-1.523-.791-.439-.583-.726-1.384-.862-2.403Zm-4.498-3.879c.061-.858.43-1.561 1.105-2.11.678-.549 1.601-.88 2.771-.993 1.629-.157 3.195.06 4.701.649l-.365-5.188c-1.751-.63-3.833-.83-6.249-.596-2.929.283-5.147 1.38-6.653 3.292-1.504 1.912-2.149 4.406-1.933 7.48.149 2.114.638 3.944 1.467 5.488.83 1.545 1.979 2.708 3.447 3.488 1.47.781 3.051 1.089 4.745.926 1.738-.168 3.197-.709 4.376-1.622 1.179-.914 2.038-2.119 2.577-3.615.539-1.496.74-3.205.606-5.127l-.216-3.074Z" style="fill:#fff;fill-opacity:1;fill-rule:nonzero;stroke:none" transform="translate(439.137 512.565)"/><path d="M0 0c-.502-.191-1.252-.271-2.248-.237-.997.034-2.124.193-3.384.476-1.773.4-3.285 1.156-4.535 2.268a8.949 8.949 0 0 0-2.634 4.085c-.505 1.612-.595 3.313-.269 5.104.389 2.146 1.131 3.892 2.223 5.238a8.027 8.027 0 0 0 4.127 2.725c1.658.47 3.483.481 5.475.033 1.096-.247 2.063-.547 2.904-.901.842-.355 1.369-.664 1.583-.928l-1.101-6.071c-.294.384-.749.766-1.365 1.146-.614.379-1.201.631-1.759.757-1.369.308-2.471.179-3.31-.387-.837-.567-1.375-1.508-1.614-2.825-.235-1.292-.071-2.372.497-3.242.565-.869 1.456-1.441 2.67-1.715 1.303-.293 2.564-.215 3.786.233Z" style="fill:#fff;fill-opacity:1;fill-rule:nonzero;stroke:none" transform="translate(461.685 497.66)"/><path d="M0 0c.735 2.41.271 3.927-1.396 4.55-1.665.624-2.883-.327-3.654-2.852-.812-2.664-.375-4.312 1.312-4.943C-2.095-3.861-.848-2.779 0 0m6.755-2.491C5.844-5.478 4.313-7.52 2.164-8.616.015-9.713-2.522-9.713-5.447-8.619c-2.905 1.088-4.911 2.768-6.022 5.04-1.11 2.273-1.219 4.873-.325 7.802.573 1.88 1.451 3.369 2.633 4.469 1.182 1.099 2.589 1.754 4.219 1.967 1.63.211 3.361-.026 5.193-.711 1.894-.71 3.418-1.711 4.572-3.004s1.894-2.765 2.22-4.416c.325-1.651.229-3.323-.288-5.019" style="fill:#fff;fill-opacity:1;fill-rule:nonzero;stroke:none" transform="translate(478.786 502.178)"/><path d="m0 0 4.86 9.754c.407.816.578 1.505.514 2.069-.063.562-.395 1.026-.995 1.389-.588.358-1.17.392-1.744.102-.573-.291-1.077-.872-1.511-1.742l-4.687-9.408-6.38 3.875 4.778 9.589c.862 1.73.759 2.92-.309 3.569-.648.394-1.263.44-1.842.139-.58-.301-1.103-.92-1.569-1.857l-4.621-9.275-6.38 3.874 8.436 16.93 6.379-3.874-1.335-2.678.06-.037c.476.328 1.098.578 1.867.75.767.173 1.557.21 2.367.113.809-.097 1.599-.379 2.368-.845 1.088-.662 1.887-1.455 2.394-2.38.507-.927.755-2.053.744-3.381 1.01.62 2.093.914 3.248.881 1.153-.034 2.279-.384 3.378-1.051 1.606-.976 2.551-2.303 2.834-3.982.282-1.679-.122-3.609-1.208-5.792L6.364-3.866Z" style="fill:#fff;fill-opacity:1;fill-rule:nonzero;stroke:none" transform="translate(504.986 478.816)"/><path d="m0 0-14.965 14.964 37.601 48.735 19.162 59.193-28.309 27.394H-1.278L-36.65 43.819-27.224 0h-117.135l-16.265 15.9 17.566 22.234c-10.374 2.758-26.318 7.016-34.784 9.376-14.092 3.928-29.021 15.78-34.728 27.571-3.068 6.338-4.336 11.262-4.856 14.418-5.372 2.318-16.016 7.821-22.203 17.14-5.126 7.721-7.474 14.794-8.515 19.032-7.063 1.483-22.228 6.034-35.701 19.212-14.23 13.919-17.608 29.787-18.409 36.41-4.426 2.899-12.945 9.977-19.076 24.311-8.324 19.465-5.275 32.77-5.141 33.327l1.506 6.266 5.874-2.652c.527-.237 53.259-23.914 109.244-38.157 41.259-10.497 66.714-17.136 77.937-20.085l13.454 40.468H55.755l11.795-14.759-6.531-19.818c10.513 4.509 25.521 11.667 40.16 21.157 25.834 16.748 42.286 32.006 42.45 32.159l3.645 3.398 20.499-19.191-12.311-38.398c13.765 3.758 33.636 9.051 59.995 15.757 56.024 14.253 109.223 37.268 109.754 37.5l5.828 2.533 1.485-6.178c.134-.557 3.184-13.862-5.142-33.327-6.148-14.375-15.042-21.558-19.664-24.506-.637-6.708-3.664-22.367-17.821-36.215-13.437-13.143-28.868-17.803-36.108-19.35-.894-4.275-3.029-11.244-8.108-18.894-6.228-9.382-17.338-15.07-22.857-17.448-.507-3.1-1.754-7.889-4.771-14.122-5.847-12.082-20.214-23.673-34.159-27.559-9.982-2.783-52.604-14.116-71.661-19.178L118.403 0Z" style="fill:#bdbcbc;fill-opacity:1;fill-rule:nonzero;stroke:none" transform="translate(418.156 229.839)"/><path d="M0 0s-53.442-23.244-110.566-37.778c-33.167-8.438-56.043-14.634-69.4-18.348l14.291 44.573-14.395 13.478s-16.597-15.496-43.188-32.734c-21.503-13.94-43.931-22.991-51.73-25.945l9.23 28.008-8.389 10.499h-167.8l-13.819-41.568c-6.271 1.658-33.188 8.744-82.734 21.35C-595.625-23.932-648.624 0-648.624 0s-2.865-11.92 4.86-29.984c7.725-18.063 19.255-23.198 19.255-23.198s.276-19.393 17.055-35.806c16.78-16.413 36.495-18.385 36.495-18.385s1.008-9.536 8.435-20.723c7.428-11.186 22.74-16.321 22.74-16.321s-.183-5.823 4.677-15.863c4.859-10.041 18.201-21.09 31.359-24.757 11.26-3.139 35.744-9.634 42.575-11.443l-19.629-24.845 11.279-11.027h108.358l-8.344 38.788 37.044 111.499h20.769l21.525-20.769 4.923 14.941 10.642-10.494-25.308-78.123-35.302-45.755 10.087-10.087h109.573l-5.846 26.847c16.91 4.487 65.694 17.448 76.526 20.468 13.158 3.667 25.931 14.705 30.79 24.745 4.859 10.041 4.573 15.554 4.573 15.554s15.986 5.456 23.413 16.642c7.426 11.187 7.855 20.54 7.855 20.54s20.294 2.155 37.075 18.568c16.779 16.413 16.382 35.599 16.382 35.599s12.203 5.342 19.928 23.405C2.865-11.92 0 0 0 0" style="fill:#1c1412;fill-opacity:1;fill-rule:nonzero;stroke:none" transform="translate(745.494 467.523)"/></g><path d="m295.844 393.71 19.439 12.195h33.194l-39.611-120.577-23.016-29.25 77.756.092-6.235 28.517 39.979 121.402h32.368l13.02-12.288 14.671 45.389-146.894.275z" style="fill:url(#c);stroke:none" transform="matrix(2.09423 0 0 -2.09423 -181.92 1159.26)"/><path d="M513.434 419.98c-25.858-14.304-43.188-20.356-43.188-20.356l-4.126-13.204h20.767l-32.596-100.816-23.382-29.434h78.398l-6.602 28.608 52.128 162.985s-15.542-13.479-41.399-27.783" style="fill:url(#d);stroke:none" transform="matrix(2.09423 0 0 -2.09423 -181.92 1159.26)"/><path d="M136.264 398.833c6.568-10.212 19.771-17.021 25.755-18.602 5.982-1.581 78.122-21.09 78.122-21.09s-6.43 5.995-9.628 12.563c-3.197 6.567-3.301 14.303-3.301 14.303s-36.906 9.628-57.353 15.038c-20.449 5.41-39.337 14.947-39.337 14.947s-.825-6.946 5.742-17.159" style="fill:url(#e);stroke:none" transform="matrix(2.09423 0 0 -2.09423 -181.92 1159.26)"/><path d="M187.6 354.374c3.577-5.273 12.517-13.479 22.007-16.093 9.491-2.613 64.644-17.605 64.644-17.605s-6.258 6.052-9.146 12.104c-2.889 6.052-3.233 14.029-3.233 14.029l-77.296 20.906s-.551-8.07 3.024-13.341" style="fill:url(#f);stroke:none" transform="matrix(2.09423 0 0 -2.09423 -181.92 1159.26)"/><path d="M116.906 437.31c4.538-6.395 12.24-13.203 28.745-20.081 16.505-6.877 71.383-22.006 71.383-22.006s-5.776 5.455-9.536 12.975c-3.759 7.518-2.567 13.088-2.567 13.088s-22.281 6.121-46.076 13.136c-23.795 7.014-47.452 18.568-47.452 18.568s.963-9.285 5.503-15.68" style="fill:url(#g);stroke:none" transform="matrix(2.09423 0 0 -2.09423 -181.92 1159.26)"/><path d="M220.289 404.071c4.425-6.349 12.631-12.837 21.548-15.312 3.896-1.082 20.562-5.683 38.094-10.52l7.05 21.205-71.276 18.84s.16-7.863 4.584-14.213" style="fill:url(#h);stroke:none" transform="matrix(2.09423 0 0 -2.09423 -181.92 1159.26)"/><path d="m326.516 385.457-22.413-13.886 20.638-5.692 6.36 19.67z" style="fill:url(#i);stroke:none" transform="matrix(2.09423 0 0 -2.09423 -181.92 1159.26)"/><path d="M242.204 369.778c4.195-6.12 10.935-13.273 20.907-16.046 8.581-2.387 43.41-12.042 52.953-14.686l6.742 20.848-26.129 7.076-8.122-5.032-10.474 10.068-39.178 10.609s-.894-6.717 3.301-12.837" style="fill:url(#j);stroke:none" transform="matrix(2.09423 0 0 -2.09423 -181.92 1159.26)"/><path d="M277.14 329.8c3.529-4.86 10.361-11.096 17.055-13.479 4.656-1.658 10.13-3.582 13.033-4.6l6.797 21.02-41.012 11.087s.596-9.168 4.127-14.028" style="fill:url(#k);stroke:none" transform="matrix(2.09423 0 0 -2.09423 -181.92 1159.26)"/><path d="M218.203 317.994c2.958-5.501 11.554-14.992 21.113-17.605 8.289-2.267 46.533-12.616 56.546-15.325l4.522 5.49 4.828 14.934-89.003 23.853s-.963-5.845 1.994-11.347" style="fill:url(#l);stroke:none" transform="matrix(2.09423 0 0 -2.09423 -181.92 1159.26)"/><path d="M671.558 400.678c-20.447-5.409-57.353-15.037-57.353-15.037s-.103-7.736-3.302-14.305c-3.197-6.567-9.627-12.562-9.627-12.562s72.139 19.509 78.122 21.09c5.983 1.582 19.186 8.391 25.756 18.603 6.566 10.211 5.741 17.157 5.741 17.157s-18.889-9.535-39.337-14.946" style="fill:url(#m);stroke:none" transform="matrix(2.09423 0 0 -2.09423 -181.92 1159.26)"/><path d="M579.544 346.441s-.344-7.976-3.233-14.028c-2.887-6.052-9.145-12.104-9.145-12.104s55.153 14.992 64.644 17.606c9.489 2.613 18.43 10.82 22.007 16.092 3.575 5.272 3.025 13.341 3.025 13.341z" style="fill:url(#n);stroke:none" transform="matrix(2.09423 0 0 -2.09423 -181.92 1159.26)"/><path d="M682.563 434.055c-23.796-7.014-46.077-13.135-46.077-13.135s1.192-5.571-2.567-13.089c-3.76-7.519-9.536-12.975-9.536-12.975s54.878 15.13 71.383 22.007c16.505 6.877 24.207 13.684 28.746 20.081 4.538 6.395 5.501 15.679 5.501 15.679s-23.657-11.554-47.45-18.568" style="fill:url(#o);stroke:none" transform="matrix(2.09423 0 0 -2.09423 -181.92 1159.26)"/><path d="m562.248 401.168-7.94-24.763c8.79 2.302 37.736 9.895 45.271 11.986 8.918 2.476 17.124 8.963 21.548 15.313 4.424 6.35 4.586 14.213 4.586 14.213z" style="fill:url(#p);stroke:none" transform="matrix(2.09423 0 0 -2.09423 -181.92 1159.26)"/><path d="m551.785 368.536-7.885-24.594c7.18 1.956 26.379 7.189 34.407 9.423 9.972 2.773 16.711 9.925 20.906 16.046 4.194 6.12 3.301 12.837 3.301 12.837z" style="fill:url(#q);stroke:none" transform="matrix(2.09423 0 0 -2.09423 -181.92 1159.26)"/><path d="m541.529 336.548-7.969-24.855c3.392.966 9.206 2.674 13.662 4.261 6.694 2.383 13.525 8.619 17.055 13.478 3.53 4.86 4.126 14.03 4.126 14.03z" style="fill:url(#r);stroke:none" transform="matrix(2.09423 0 0 -2.09423 -181.92 1159.26)"/><path d="m531.094 304.007-7.915-24.692c16.92 4.417 70.879 18.508 78.923 20.706 9.558 2.615 18.155 12.104 21.111 17.606 2.957 5.502 1.995 11.347 1.995 11.347z" style="fill:url(#s);stroke:none" transform="matrix(2.09423 0 0 -2.09423 -181.92 1159.26)"/><g clip-path="url(#t)" transform="matrix(2.09423 0 0 -2.09423 -181.92 1159.26)"><path d="m0 0-7.29-4.333 8.665 26.339h5.777Z" style="fill:#e9e9e9;fill-opacity:1;fill-rule:nonzero;stroke:none" transform="translate(314.894 411.934)"/><path d="M0 0h5.811l-39.886-121.138-18.695-23.107h-5.593l18.706 23.381z" style="fill:#e9e9e9;fill-opacity:1;fill-rule:nonzero;stroke:none" transform="translate(356.087 406.33)"/><path d="m0 0 1.237 5.433s14.167 4.882 33.835 16.023 32.116 20.7 32.116 20.7l-2.201-7.565S51.715 24.344 34.522 15.542C17.33 6.739 0 0 0 0" style="fill:#e9e9e9;fill-opacity:1;fill-rule:nonzero;stroke:none" transform="translate(477.948 392.404)"/><path d="M0 0h5.641l-34.225-104.921-17.377-22.601h-5.685l17.834 23.152z" style="fill:#e9e9e9;fill-opacity:1;fill-rule:nonzero;stroke:none" transform="translate(495.759 389.928)"/></g></svg>