<svg xmlns="http://www.w3.org/2000/svg" width="136pt" height="136pt" viewBox="0 0 136 136"><g fill="#fff"><path d="M52.21 12.03c10.33-.1 20.66.06 30.99-.08 1.71 2.62 3.2 5.37 4.79 8.07C81.32 28 74.68 36.01 68 43.98 61.32 36 54.66 28 48.01 19.99c1.4-2.65 2.82-5.29 4.2-7.96ZM0 36.3c14.64-.68 29.33-.11 43.99-.3C48 40 52 44 56 48.01c-2.67 9.32-5.32 18.66-8.01 27.98-6.66-2.65-13.32-5.32-19.98-7.99 3.97-5.35 8.02-10.63 11.96-15.99-5.01-.08-10.15.4-15-1.14C15.58 48.12 7.75 42.05 0 36.34v-.04ZM92.02 36c14.66.05 29.32-.09 43.98.07v.03c-7.3 5.9-15.1 11.53-24.1 14.5-5.11 1.85-10.59 1.34-15.91 1.41 4.01 5.32 8 10.65 11.99 15.98-6.64 2.7-13.31 5.34-19.97 8-2.69-9.32-5.34-18.65-8.01-27.98C84.01 44 88 39.99 92.02 36ZM64.01 52.11c1.36 1.26 2.7 2.55 3.99 3.89 1.32-1.33 2.65-2.65 3.99-3.97 4.04 19.97 7.97 39.96 12.02 59.92-5.31 4.05-10.66 8.07-16.04 12.03-5.32-4.01-10.67-7.97-15.98-12.01 4.04-19.94 7.96-39.92 12.02-59.86Z" opacity="1.00"/></g></svg>