<svg xmlns="http://www.w3.org/2000/svg" xml:space="preserve" width="932.46625" height="371.1048" viewBox="0 0 932.46623 371.1048"><defs><clipPath id="a" clipPathUnits="userSpaceOnUse"><path d="M0 595.28h841.89V0H0Z"/></clipPath></defs><g clip-path="url(#a)" transform="matrix(1.33333 0 0 -1.33333 -94.97 654.15)"><path d="M0 0c21.68 18.3 27.064 32.274 27.064 32.274h-582.867s-.343-6.808 27.596-31.743c27.938-24.935 60.624-27.595 72.881-27.595h318.366C-178.985-88.329-239.877-177.11-241.4-179.396c-2.33-3.5-13.707-16.394-6.835-32.874 6.872-16.479 33.562-33.784 33.562-33.784l150.164 218.99C-61.093-27.058-21.671-18.293 0 0" style="fill:#e91b3b;fill-opacity:1;fill-rule:nonzero;stroke:none" transform="translate(627.03 458.338)"/><path d="m0 0-.034-.05L0 .029s-16.19-24.315-39.275-38.646c-23.084-14.332-50.346-21.551-50.346-21.551l48.343-.028c-42.226-61.581-101.884-148.596-103.391-150.859-2.337-3.511-13.745-16.448-6.891-32.953 6.856-16.505 34.106-33.008 34.106-33.008L72.487-.057Z" style="fill:#e91b3b;fill-opacity:1;fill-rule:nonzero;stroke:none" transform="translate(698.09 490.583)"/><path d="M0 0h-288.587s1.468-3.211 14.584-15.168c13.116-11.958 26.428-14.585 30.705-14.585h222.89L0 0" style="fill:#e91b3b;fill-opacity:1;fill-rule:nonzero;stroke:none" transform="translate(461.044 416.48)"/><path d="M0 0h-198.271s.974-5.102 13.928-15.826c12.955-10.723 21.973-13.927 25.92-13.927h138.019L0 0" style="fill:#e91b3b;fill-opacity:1;fill-rule:nonzero;stroke:none" transform="translate(429.432 370.393)"/><path d="M0 0h-112.639s-.094-3.326 14.196-15.557C-84.152-27.788-75.6-29.753-71.8-29.753h51.404C-14.922-21.765-7.918-11.548 0 0" style="fill:#e91b3b;fill-opacity:1;fill-rule:nonzero;stroke:none" transform="translate(399.415 326.622)"/></g></svg>