<svg xmlns="http://www.w3.org/2000/svg" width="136pt" height="136pt" viewBox="0 0 136 136"><path fill="#fff" d="M16 16c32.06 0 64.12-.01 96.18.01-6.72 6.67-13.45 13.33-20.19 19.99H36v56c-6.66 6.73-13.33 13.46-19.99 20.18-.02-32.06 0-64.12-.01-96.18Z" opacity="1.00"/><g fill="#fff"><path d="M104 44.02c5.32-5.33 10.65-10.64 15.99-15.94.02 30.64.01 61.28.01 91.92-30.64 0-61.28.01-91.93-.01 5.33-5.34 10.66-10.66 16-15.99 19.97-.01 39.95.01 59.93 0V44.02Z" opacity="0.375"/><path d="M56 56h28v28H56V56Z" opacity="0.375"/></g></svg>